<svg width="118" height="51" viewBox="0 0 118 51" fill="none" xmlns="http://www.w3.org/2000/svg">
<g filter="url(#filter0_d_15_127)">
<mask id="path-1-outside-1_15_127" maskUnits="userSpaceOnUse" x="0" y="0" width="115" height="47" fill="black">
<rect fill="white" width="115" height="47"/>
<path d="M1.384 45.68L9.32 1.712C9.36267 1.54133 9.46933 1.456 9.64 1.456H18.92C19.0907 1.456 19.1973 1.54133 19.24 1.712L26.856 45.68C26.8987 45.8933 26.8133 46 26.6 46H19.496C19.3253 46 19.2187 45.8933 19.176 45.68L18.472 41.008H9.768L9.064 45.68C9.02133 45.8933 8.91467 46 8.744 46H1.64C1.46933 46 1.384 45.8933 1.384 45.68ZM11.048 34.16H17.192L14.568 16.176L14.184 13.808L13.928 16.176L11.048 34.16ZM34.6485 46C34.3072 46 34.1365 45.8507 34.1365 45.552L34.0725 1.968C34.0725 1.62666 34.2432 1.456 34.5845 1.456H40.3445L51.1605 26.672L50.8405 1.968C50.8405 1.62666 51.0325 1.456 51.4165 1.456H57.7525C58.0085 1.456 58.1365 1.62666 58.1365 1.968L58.2005 45.616C58.2005 45.872 58.0938 46 57.8805 46H52.2485L41.1765 22.448L41.6245 45.488C41.6245 45.8293 41.4325 46 41.0485 46H34.6485ZM67.841 46C67.6703 46 67.585 45.8933 67.585 45.68L67.649 1.776C67.649 1.56266 67.7557 1.456 67.969 1.456H75.073C75.2863 1.456 75.393 1.56266 75.393 1.776L75.329 38.128H88.513C88.7263 38.128 88.833 38.2347 88.833 38.448V45.68C88.833 45.8933 88.7263 46 88.513 46H67.841ZM96.987 46C96.859 46 96.795 45.9147 96.795 45.744L96.859 27.568L88.283 1.712C88.2403 1.54133 88.3043 1.456 88.475 1.456H95.579C95.7923 1.456 95.9203 1.54133 95.963 1.712L100.699 18.928L105.499 1.712C105.542 1.54133 105.648 1.456 105.819 1.456H112.987C113.158 1.456 113.222 1.54133 113.179 1.712L104.539 27.312L104.603 45.744C104.603 45.9147 104.518 46 104.347 46H96.987Z"/>
</mask>
<path d="M1.384 45.68L9.32 1.712C9.36267 1.54133 9.46933 1.456 9.64 1.456H18.92C19.0907 1.456 19.1973 1.54133 19.24 1.712L26.856 45.68C26.8987 45.8933 26.8133 46 26.6 46H19.496C19.3253 46 19.2187 45.8933 19.176 45.68L18.472 41.008H9.768L9.064 45.68C9.02133 45.8933 8.91467 46 8.744 46H1.64C1.46933 46 1.384 45.8933 1.384 45.68ZM11.048 34.16H17.192L14.568 16.176L14.184 13.808L13.928 16.176L11.048 34.16ZM34.6485 46C34.3072 46 34.1365 45.8507 34.1365 45.552L34.0725 1.968C34.0725 1.62666 34.2432 1.456 34.5845 1.456H40.3445L51.1605 26.672L50.8405 1.968C50.8405 1.62666 51.0325 1.456 51.4165 1.456H57.7525C58.0085 1.456 58.1365 1.62666 58.1365 1.968L58.2005 45.616C58.2005 45.872 58.0938 46 57.8805 46H52.2485L41.1765 22.448L41.6245 45.488C41.6245 45.8293 41.4325 46 41.0485 46H34.6485ZM67.841 46C67.6703 46 67.585 45.8933 67.585 45.68L67.649 1.776C67.649 1.56266 67.7557 1.456 67.969 1.456H75.073C75.2863 1.456 75.393 1.56266 75.393 1.776L75.329 38.128H88.513C88.7263 38.128 88.833 38.2347 88.833 38.448V45.68C88.833 45.8933 88.7263 46 88.513 46H67.841ZM96.987 46C96.859 46 96.795 45.9147 96.795 45.744L96.859 27.568L88.283 1.712C88.2403 1.54133 88.3043 1.456 88.475 1.456H95.579C95.7923 1.456 95.9203 1.54133 95.963 1.712L100.699 18.928L105.499 1.712C105.542 1.54133 105.648 1.456 105.819 1.456H112.987C113.158 1.456 113.222 1.54133 113.179 1.712L104.539 27.312L104.603 45.744C104.603 45.9147 104.518 46 104.347 46H96.987Z" fill="#962328"/>
<path d="M1.384 45.68L0.399902 45.5024L0.384 45.5905V45.68H1.384ZM9.32 1.712L8.34986 1.46946L8.3418 1.50169L8.3359 1.53437L9.32 1.712ZM19.24 1.712L20.2253 1.54132L20.2191 1.50511L20.2101 1.46946L19.24 1.712ZM26.856 45.68L25.8707 45.8507L25.8729 45.8634L25.8754 45.8761L26.856 45.68ZM19.176 45.68L18.1872 45.829L18.1907 45.8527L18.1954 45.8761L19.176 45.68ZM18.472 41.008L19.4608 40.859L19.3326 40.008H18.472V41.008ZM9.768 41.008V40.008H8.9074L8.77916 40.859L9.768 41.008ZM9.064 45.68L10.0446 45.8761L10.0493 45.8527L10.0528 45.829L9.064 45.68ZM11.048 34.16L10.0606 34.0019L9.87512 35.16H11.048V34.16ZM17.192 34.16V35.16H18.3485L18.1815 34.0156L17.192 34.16ZM14.568 16.176L15.5575 16.0316L15.5564 16.0238L15.5551 16.0159L14.568 16.176ZM14.184 13.808L15.1711 13.6479L13.1898 13.7005L14.184 13.808ZM13.928 16.176L14.9154 16.3341L14.9195 16.3089L14.9222 16.2835L13.928 16.176ZM1.384 45.68L2.3681 45.8576L10.3041 1.88962L9.32 1.712L8.3359 1.53437L0.399902 45.5024L1.384 45.68ZM9.32 1.712L10.2901 1.95453C10.2738 2.02006 10.218 2.17179 10.0567 2.30087C9.89221 2.43245 9.72379 2.456 9.64 2.456V1.456V0.455997C9.38555 0.455997 9.07845 0.52221 8.8073 0.73913C8.5393 0.953536 8.40891 1.23327 8.34986 1.46946L9.32 1.712ZM9.64 1.456V2.456H18.92V1.456V0.455997H9.64V1.456ZM18.92 1.456V2.456C18.8362 2.456 18.6678 2.43245 18.5033 2.30087C18.342 2.1718 18.2862 2.02006 18.2699 1.95454L19.24 1.712L20.2101 1.46946C20.1511 1.23327 20.0207 0.953533 19.7527 0.739128C19.4815 0.52221 19.1745 0.455997 18.92 0.455997V1.456ZM19.24 1.712L18.2547 1.88267L25.8707 45.8507L26.856 45.68L27.8413 45.5093L20.2253 1.54132L19.24 1.712ZM26.856 45.68L25.8754 45.8761C25.8729 45.8633 25.815 45.5804 26.0431 45.2953C26.2765 45.0036 26.5749 45 26.6 45V46V47C26.8384 47 27.2862 46.9431 27.6049 46.5447C27.9183 46.1529 27.8818 45.71 27.8366 45.4839L26.856 45.68ZM26.6 46V45H19.496V46V47H26.6V46ZM19.496 46V45C19.6379 45 19.8357 45.0534 19.9951 45.2129C20.1304 45.3482 20.1555 45.4785 20.1566 45.4839L19.176 45.68L18.1954 45.8761C18.2392 46.0948 18.3389 46.3851 18.5809 46.6271C18.847 46.8932 19.1834 47 19.496 47V46ZM19.176 45.68L20.1648 45.531L19.4608 40.859L18.472 41.008L17.4832 41.157L18.1872 45.829L19.176 45.68ZM18.472 41.008V40.008H9.768V41.008V42.008H18.472V41.008ZM9.768 41.008L8.77916 40.859L8.07516 45.531L9.064 45.68L10.0528 45.829L10.7568 41.157L9.768 41.008ZM9.064 45.68L8.08342 45.4839C8.0845 45.4785 8.10958 45.3482 8.24489 45.2129C8.40434 45.0534 8.60209 45 8.744 45V46V47C9.05658 47 9.39299 46.8932 9.65911 46.6271C9.90109 46.3851 10.0008 46.0948 10.0446 45.8761L9.064 45.68ZM8.744 46V45H1.64V46V47H8.744V46ZM1.64 46V45C1.77537 45 2.03531 45.0534 2.22887 45.2953C2.38834 45.4946 2.384 45.6798 2.384 45.68H1.384H0.384C0.384 45.8935 0.42233 46.2387 0.667131 46.5447C0.946021 46.8933 1.33396 47 1.64 47V46ZM11.048 34.16V35.16H17.192V34.16V33.16H11.048V34.16ZM17.192 34.16L18.1815 34.0156L15.5575 16.0316L14.568 16.176L13.5785 16.3204L16.2025 34.3044L17.192 34.16ZM14.568 16.176L15.5551 16.0159L15.1711 13.6479L14.184 13.808L13.1969 13.9681L13.5809 16.3361L14.568 16.176ZM14.184 13.808L13.1898 13.7005L12.9338 16.0685L13.928 16.176L14.9222 16.2835L15.1782 13.9155L14.184 13.808ZM13.928 16.176L12.9406 16.0179L10.0606 34.0019L11.048 34.16L12.0354 34.3181L14.9154 16.3341L13.928 16.176ZM34.1365 45.552L35.1365 45.552L35.1365 45.5505L34.1365 45.552ZM34.0725 1.968L33.0725 1.968L33.0725 1.96947L34.0725 1.968ZM40.3445 1.456L41.2635 1.0618L41.0037 0.455997H40.3445V1.456ZM51.1605 26.672L50.2415 27.0662L52.1604 26.659L51.1605 26.672ZM50.8405 1.968H49.8404L49.8406 1.98095L50.8405 1.968ZM58.1365 1.968L57.1365 1.968L57.1365 1.96946L58.1365 1.968ZM58.2005 45.616L59.2005 45.616L59.2005 45.6145L58.2005 45.616ZM52.2485 46L51.3435 46.4254L51.6136 47H52.2485V46ZM41.1765 22.448L42.0815 22.0226L40.1767 22.4674L41.1765 22.448ZM41.6245 45.488H42.6245V45.4783L42.6243 45.4686L41.6245 45.488ZM34.6485 46V45C34.6016 45 34.7532 44.9869 34.923 45.1354C35.1183 45.3063 35.1365 45.5099 35.1365 45.552H34.1365H33.1365C33.1365 45.8928 33.24 46.3204 33.606 46.6406C33.9465 46.9385 34.3541 47 34.6485 47V46ZM34.1365 45.552L35.1365 45.5505L35.0725 1.96653L34.0725 1.968L33.0725 1.96947L33.1365 45.5535L34.1365 45.552ZM34.0725 1.968H35.0725C35.0725 1.95148 35.076 2.12276 34.9076 2.2911C34.7393 2.45945 34.568 2.456 34.5845 2.456V1.456V0.455997C34.2597 0.455997 33.8324 0.537878 33.4934 0.876892C33.1544 1.21591 33.0725 1.64319 33.0725 1.968H34.0725ZM34.5845 1.456V2.456H40.3445V1.456V0.455997H34.5845V1.456ZM40.3445 1.456L39.4255 1.8502L50.2415 27.0662L51.1605 26.672L52.0795 26.2778L41.2635 1.0618L40.3445 1.456ZM51.1605 26.672L52.1604 26.659L51.8404 1.95505L50.8405 1.968L49.8406 1.98095L50.1606 26.685L51.1605 26.672ZM50.8405 1.968H51.8405C51.8405 1.98398 51.8306 2.16987 51.6489 2.33141C51.4896 2.47299 51.3515 2.456 51.4165 2.456V1.456V0.455997C51.0975 0.455997 50.6714 0.524339 50.3201 0.836589C49.9464 1.16879 49.8405 1.61068 49.8405 1.968H50.8405ZM51.4165 1.456V2.456H57.7525V1.456V0.455997H51.4165V1.456ZM57.7525 1.456V2.456C57.7065 2.456 57.619 2.4483 57.5144 2.40181C57.404 2.35274 57.3092 2.27563 57.2405 2.184C57.1175 2.01993 57.1365 1.89349 57.1365 1.968H58.1365H59.1365C59.1365 1.70118 59.0915 1.31873 58.8405 0.984C58.5489 0.595168 58.1245 0.455997 57.7525 0.455997V1.456ZM58.1365 1.968L57.1365 1.96946L57.2005 45.6175L58.2005 45.616L59.2005 45.6145L59.1365 1.96653L58.1365 1.968ZM58.2005 45.616H57.2005C57.2005 45.6138 57.2004 45.5762 57.217 45.5164C57.2343 45.4541 57.2722 45.36 57.3523 45.2638C57.5398 45.0388 57.7802 45 57.8805 45V46V47C58.1941 47 58.5945 46.8972 58.8887 46.5442C59.1538 46.2261 59.2005 45.8582 59.2005 45.616H58.2005ZM57.8805 46V45H52.2485V46V47H57.8805V46ZM52.2485 46L53.1535 45.5746L42.0815 22.0226L41.1765 22.448L40.2715 22.8734L51.3435 46.4254L52.2485 46ZM41.1765 22.448L40.1767 22.4674L40.6247 45.5074L41.6245 45.488L42.6243 45.4686L42.1763 22.4286L41.1765 22.448ZM41.6245 45.488H40.6245C40.6245 45.472 40.6344 45.2861 40.8161 45.1246C40.9754 44.983 41.1135 45 41.0485 45V46V47C41.3675 47 41.7936 46.9317 42.1449 46.6194C42.5186 46.2872 42.6245 45.8453 42.6245 45.488H41.6245ZM41.0485 46V45H34.6485V46V47H41.0485V46ZM67.585 45.68L66.585 45.6785V45.68H67.585ZM67.649 1.776L68.649 1.77745V1.776H67.649ZM75.393 1.776L76.393 1.77776V1.776H75.393ZM75.329 38.128L74.329 38.1262L74.3272 39.128H75.329V38.128ZM67.841 46V45C67.9764 45 68.2363 45.0534 68.4299 45.2953C68.5893 45.4946 68.585 45.6798 68.585 45.68H67.585H66.585C66.585 45.8935 66.6233 46.2387 66.8681 46.5447C67.147 46.8933 67.535 47 67.841 47V46ZM67.585 45.68L68.585 45.6815L68.649 1.77745L67.649 1.776L66.649 1.77454L66.585 45.6785L67.585 45.68ZM67.649 1.776H68.649C68.649 1.82348 68.6365 2.04276 68.4361 2.2431C68.2358 2.44345 68.0165 2.456 67.969 2.456V1.456V0.455997C67.7082 0.455997 67.3289 0.521877 67.0219 0.82889C66.7149 1.1359 66.649 1.51519 66.649 1.776H67.649ZM67.969 1.456V2.456H75.073V1.456V0.455997H67.969V1.456ZM75.073 1.456V2.456C75.0255 2.456 74.8062 2.44345 74.6059 2.2431C74.4055 2.04276 74.393 1.82348 74.393 1.776H75.393H76.393C76.393 1.51519 76.3271 1.1359 76.0201 0.828891C75.7131 0.521878 75.3338 0.455997 75.073 0.455997V1.456ZM75.393 1.776L74.393 1.77424L74.329 38.1262L75.329 38.128L76.329 38.1298L76.393 1.77776L75.393 1.776ZM75.329 38.128V39.128H88.513V38.128V37.128H75.329V38.128ZM88.513 38.128V39.128C88.4655 39.128 88.2462 39.1155 88.0459 38.9151C87.8455 38.7148 87.833 38.4955 87.833 38.448H88.833H89.833C89.833 38.1872 89.7671 37.8079 89.4601 37.5009C89.1531 37.1939 88.7738 37.128 88.513 37.128V38.128ZM88.833 38.448H87.833V45.68H88.833H89.833V38.448H88.833ZM88.833 45.68H87.833C87.833 45.6325 87.8455 45.4132 88.0459 45.2129C88.2462 45.0125 88.4655 45 88.513 45V46V47C88.7738 47 89.1531 46.9341 89.4601 46.6271C89.7671 46.3201 89.833 45.9408 89.833 45.68H88.833ZM88.513 46V45H67.841V46V47H88.513V46ZM96.795 45.744L95.795 45.7405V45.744H96.795ZM96.859 27.568L97.859 27.5715L97.8596 27.4082L97.8082 27.2532L96.859 27.568ZM88.283 1.712L87.3129 1.95453L87.322 1.99107L87.3338 2.02682L88.283 1.712ZM95.963 1.712L94.9929 1.95453L94.9957 1.96592L94.9988 1.97724L95.963 1.712ZM100.699 18.928L99.7348 19.1932L100.693 22.6747L101.662 19.1966L100.699 18.928ZM105.499 1.712L106.462 1.98057L106.466 1.9676L106.469 1.95454L105.499 1.712ZM113.179 1.712L114.126 2.03178L114.139 1.99361L114.149 1.95454L113.179 1.712ZM104.539 27.312L103.592 26.9922L103.538 27.1495L103.539 27.3155L104.539 27.312ZM104.603 45.744L105.603 45.744L105.603 45.7405L104.603 45.744ZM96.987 46V45C97.065 45 97.1805 45.013 97.3091 45.0702C97.4435 45.1299 97.5583 45.223 97.643 45.336C97.798 45.5427 97.795 45.7332 97.795 45.744H96.795H95.795C95.795 45.9255 95.824 46.2439 96.043 46.536C96.3026 46.8822 96.679 47 96.987 47V46ZM96.795 45.744L97.795 45.7475L97.859 27.5715L96.859 27.568L95.859 27.5645L95.795 45.7405L96.795 45.744ZM96.859 27.568L97.8082 27.2532L89.2322 1.39718L88.283 1.712L87.3338 2.02682L95.9098 27.8828L96.859 27.568ZM88.283 1.712L89.2531 1.46946C89.2583 1.49002 89.3378 1.80161 89.099 2.12C88.8514 2.45011 88.5139 2.456 88.475 2.456V1.456V0.455997C88.2654 0.455997 87.8106 0.504549 87.499 0.919998C87.1962 1.32372 87.265 1.76331 87.3129 1.95453L88.283 1.712ZM88.475 1.456V2.456H95.579V1.456V0.455997H88.475V1.456ZM95.579 1.456V2.456C95.562 2.456 95.4328 2.45369 95.2803 2.35205C95.1076 2.23689 95.0226 2.07344 94.9929 1.95453L95.963 1.712L96.9331 1.46946C96.8607 1.17988 96.6904 0.888441 96.3897 0.687948C96.1092 0.500968 95.8093 0.455997 95.579 0.455997V1.456ZM95.963 1.712L94.9988 1.97724L99.7348 19.1932L100.699 18.928L101.663 18.6628L96.9272 1.44676L95.963 1.712ZM100.699 18.928L101.662 19.1966L106.462 1.98057L105.499 1.712L104.536 1.44343L99.7357 18.6594L100.699 18.928ZM105.499 1.712L106.469 1.95454C106.453 2.02006 106.397 2.1718 106.236 2.30087C106.071 2.43245 105.903 2.456 105.819 2.456V1.456V0.455997C105.565 0.455997 105.257 0.52221 104.986 0.739128C104.718 0.953533 104.588 1.23327 104.529 1.46946L105.499 1.712ZM105.819 1.456V2.456H112.987V1.456V0.455997H105.819V1.456ZM112.987 1.456V2.456C112.948 2.456 112.611 2.45011 112.363 2.12C112.124 1.8016 112.204 1.49002 112.209 1.46946L113.179 1.712L114.149 1.95454C114.197 1.76331 114.266 1.32372 113.963 0.92C113.651 0.504548 113.197 0.455997 112.987 0.455997V1.456ZM113.179 1.712L112.232 1.39222L103.592 26.9922L104.539 27.312L105.486 27.6318L114.126 2.03178L113.179 1.712ZM104.539 27.312L103.539 27.3155L103.603 45.7475L104.603 45.744L105.603 45.7405L105.539 27.3085L104.539 27.312ZM104.603 45.744H103.603C103.603 45.6752 103.621 45.4399 103.832 45.2289C104.043 45.0179 104.278 45 104.347 45V46V47C104.586 47 104.95 46.9395 105.246 46.6431C105.542 46.3468 105.603 45.9835 105.603 45.744H104.603ZM104.347 46V45H96.987V46V47H104.347V46Z" fill="#BCBBB3" mask="url(#path-1-outside-1_15_127)"/>
</g>
<defs>
<filter id="filter0_d_15_127" x="0.384003" y="0.455994" width="116.807" height="50.544" filterUnits="userSpaceOnUse" color-interpolation-filters="sRGB">
<feFlood flood-opacity="0" result="BackgroundImageFix"/>
<feColorMatrix in="SourceAlpha" type="matrix" values="0 0 0 0 0 0 0 0 0 0 0 0 0 0 0 0 0 0 127 0" result="hardAlpha"/>
<feOffset dx="3" dy="4"/>
<feComposite in2="hardAlpha" operator="out"/>
<feColorMatrix type="matrix" values="0 0 0 0 0 0 0 0 0 0 0 0 0 0 0 0 0 0 0.25 0"/>
<feBlend mode="normal" in2="BackgroundImageFix" result="effect1_dropShadow_15_127"/>
<feBlend mode="normal" in="SourceGraphic" in2="effect1_dropShadow_15_127" result="shape"/>
</filter>
</defs>
</svg>
