<svg width="332" height="432" viewBox="0 0 332 432" fill="none" xmlns="http://www.w3.org/2000/svg">
<path d="M2.816 364C2.64533 364 2.56 363.893 2.56 363.68L2.624 319.776C2.624 319.563 2.73067 319.456 2.944 319.456H10.048C10.2613 319.456 10.368 319.563 10.368 319.776L10.304 356.128H23.488C23.7013 356.128 23.808 356.235 23.808 356.448V363.68C23.808 363.893 23.7013 364 23.488 364H2.816ZM28.3175 364C28.1042 364 27.9975 363.893 27.9975 363.68L28.0615 319.712C28.0615 319.541 28.1468 319.456 28.3175 319.456H35.4855C35.6562 319.456 35.7415 319.541 35.7415 319.712L35.8055 363.68C35.8055 363.893 35.7202 364 35.5495 364H28.3175ZM53.211 364.64C50.8643 364.64 48.731 364.064 46.811 362.912C44.9337 361.717 43.4403 360.139 42.331 358.176C41.2217 356.213 40.667 354.016 40.667 351.584L40.731 331.616C40.731 329.269 41.2643 327.136 42.331 325.216C43.4403 323.253 44.9337 321.696 46.811 320.544C48.731 319.349 50.8643 318.752 53.211 318.752C55.5577 318.752 57.6697 319.328 59.547 320.48C61.4243 321.632 62.9177 323.189 64.027 325.152C65.1363 327.072 65.691 329.227 65.691 331.616V334.56C65.691 334.731 65.6057 334.816 65.435 334.816H58.267C58.0963 334.816 58.011 334.731 58.011 334.56V331.616C58.011 330.208 57.5417 328.992 56.603 327.968C55.707 326.944 54.5763 326.432 53.211 326.432C51.675 326.432 50.5017 326.965 49.691 328.032C48.8803 329.056 48.475 330.251 48.475 331.616V351.584C48.475 353.163 48.923 354.443 49.819 355.424C50.7577 356.405 51.8883 356.896 53.211 356.896C54.5763 356.896 55.707 356.363 56.603 355.296C57.5417 354.187 58.011 352.949 58.011 351.584V348.64C58.011 348.469 58.0963 348.384 58.267 348.384H65.499C65.6697 348.384 65.755 348.469 65.755 348.64V351.584C65.755 354.016 65.179 356.213 64.027 358.176C62.9177 360.139 61.4243 361.717 59.547 362.912C57.6697 364.064 55.5577 364.64 53.211 364.64ZM82.275 364.64C79.971 364.64 77.859 364.064 75.939 362.912C74.0617 361.717 72.547 360.16 71.395 358.24C70.243 356.277 69.667 354.123 69.667 351.776L69.731 331.488C69.731 329.141 70.2857 327.008 71.395 325.088C72.547 323.168 74.083 321.632 76.003 320.48C77.923 319.328 80.0137 318.752 82.275 318.752C84.579 318.752 86.6697 319.328 88.547 320.48C90.4243 321.632 91.9177 323.168 93.027 325.088C94.179 327.008 94.755 329.141 94.755 331.488L94.819 351.776C94.819 354.123 94.243 356.277 93.091 358.24C91.9817 360.16 90.467 361.717 88.547 362.912C86.6697 364.064 84.579 364.64 82.275 364.64ZM82.275 356.896C83.555 356.896 84.6643 356.384 85.603 355.36C86.5843 354.293 87.075 353.099 87.075 351.776L87.011 331.488C87.011 330.08 86.563 328.885 85.667 327.904C84.771 326.923 83.6403 326.432 82.275 326.432C80.9523 326.432 79.8217 326.923 78.883 327.904C77.9443 328.843 77.475 330.037 77.475 331.488V351.776C77.475 353.184 77.9443 354.4 78.883 355.424C79.8217 356.405 80.9523 356.896 82.275 356.896ZM99.941 364C99.7703 364 99.685 363.893 99.685 363.68L99.813 319.712C99.813 319.541 99.8983 319.456 100.069 319.456H112.997C115.301 319.456 117.413 320.032 119.333 321.184C121.296 322.293 122.853 323.808 124.005 325.728C125.157 327.605 125.733 329.739 125.733 332.128C125.733 333.707 125.498 335.136 125.029 336.416C124.56 337.653 124.005 338.72 123.365 339.616C122.725 340.469 122.149 341.109 121.637 341.536C123.941 344.096 125.093 347.104 125.093 350.56L125.157 363.68C125.157 363.893 125.05 364 124.837 364H117.605C117.434 364 117.349 363.936 117.349 363.808V350.56C117.349 349.024 116.794 347.701 115.685 346.592C114.618 345.44 113.296 344.864 111.717 344.864H107.493L107.429 363.68C107.429 363.893 107.344 364 107.173 364H99.941ZM107.493 337.184H112.997C114.32 337.184 115.493 336.693 116.517 335.712C117.541 334.731 118.053 333.536 118.053 332.128C118.053 330.763 117.541 329.589 116.517 328.608C115.536 327.627 114.362 327.136 112.997 327.136H107.493V337.184ZM130.816 364C130.645 364 130.56 363.893 130.56 363.68L130.624 319.712C130.624 319.541 130.709 319.456 130.88 319.456H151.424C151.595 319.456 151.68 319.563 151.68 319.776V326.944C151.68 327.115 151.595 327.2 151.424 327.2H138.304V337.184H151.424C151.595 337.184 151.68 337.269 151.68 337.44L151.744 344.672C151.744 344.843 151.659 344.928 151.488 344.928H138.304V356.128H151.488C151.659 356.128 151.744 356.235 151.744 356.448V363.744C151.744 363.915 151.659 364 151.488 364H130.816ZM157.691 364C157.52 364 157.435 363.893 157.435 363.68L157.563 319.712C157.563 319.541 157.648 319.456 157.819 319.456H170.747C173.051 319.456 175.163 320.032 177.083 321.184C179.046 322.293 180.603 323.808 181.755 325.728C182.907 327.605 183.483 329.739 183.483 332.128C183.483 333.707 183.248 335.136 182.779 336.416C182.31 337.653 181.755 338.72 181.115 339.616C180.475 340.469 179.899 341.109 179.387 341.536C181.691 344.096 182.843 347.104 182.843 350.56L182.907 363.68C182.907 363.893 182.8 364 182.587 364H175.355C175.184 364 175.099 363.936 175.099 363.808V350.56C175.099 349.024 174.544 347.701 173.435 346.592C172.368 345.44 171.046 344.864 169.467 344.864H165.243L165.179 363.68C165.179 363.893 165.094 364 164.923 364H157.691ZM165.243 337.184H170.747C172.07 337.184 173.243 336.693 174.267 335.712C175.291 334.731 175.803 333.536 175.803 332.128C175.803 330.763 175.291 329.589 174.267 328.608C173.286 327.627 172.112 327.136 170.747 327.136H165.243V337.184ZM186.134 363.68L194.07 319.712C194.113 319.541 194.219 319.456 194.39 319.456H203.67C203.841 319.456 203.947 319.541 203.99 319.712L211.606 363.68C211.649 363.893 211.563 364 211.35 364H204.246C204.075 364 203.969 363.893 203.926 363.68L203.222 359.008H194.518L193.814 363.68C193.771 363.893 193.665 364 193.494 364H186.39C186.219 364 186.134 363.893 186.134 363.68ZM195.798 352.16H201.942L199.318 334.176L198.934 331.808L198.678 334.176L195.798 352.16ZM225.072 363.68L233.008 319.712C233.05 319.541 233.157 319.456 233.328 319.456H242.608C242.778 319.456 242.885 319.541 242.928 319.712L250.544 363.68C250.586 363.893 250.501 364 250.288 364H243.184C243.013 364 242.906 363.893 242.864 363.68L242.16 359.008H233.456L232.752 363.68C232.709 363.893 232.602 364 232.432 364H225.328C225.157 364 225.072 363.893 225.072 363.68ZM234.736 352.16H240.88L238.256 334.176L237.872 331.808L237.616 334.176L234.736 352.16ZM255.136 364C254.795 364 254.624 363.851 254.624 363.552L254.56 319.968C254.56 319.627 254.731 319.456 255.072 319.456H260.832L271.648 344.672L271.328 319.968C271.328 319.627 271.52 319.456 271.904 319.456H278.24C278.496 319.456 278.624 319.627 278.624 319.968L278.688 363.616C278.688 363.872 278.581 364 278.368 364H272.736L261.664 340.448L262.112 363.488C262.112 363.829 261.92 364 261.536 364H255.136ZM285.129 364C284.958 364 284.873 363.893 284.873 363.68L284.937 319.776C284.937 319.563 285.043 319.456 285.257 319.456H292.361C292.574 319.456 292.681 319.563 292.681 319.776L292.617 356.128H305.801C306.014 356.128 306.121 356.235 306.121 356.448V363.68C306.121 363.893 306.014 364 305.801 364H285.129ZM311.075 364C310.947 364 310.883 363.915 310.883 363.744L310.947 345.568L302.37 319.712C302.328 319.541 302.392 319.456 302.562 319.456H309.667C309.88 319.456 310.008 319.541 310.051 319.712L314.787 336.928L319.587 319.712C319.629 319.541 319.736 319.456 319.907 319.456H327.075C327.245 319.456 327.309 319.541 327.267 319.712L318.627 345.312L318.691 363.744C318.691 363.915 318.605 364 318.435 364H311.075Z" fill="#962328"/>
<path d="M204 177.2C198.986 176.447 192.754 176 186 176C169.431 176 156 178.686 156 182H154.63C152.535 179.396 144.33 177.36 134 176.907V147H204V177.2Z" fill="#1C0207"/>
<g filter="url(#filter0_d_4_123)">
<rect x="154.151" width="29.8267" height="14.736" rx="3" transform="rotate(0.587946 154.151 0)" fill="#962328"/>
</g>
<rect x="156.031" y="14" width="26" height="58" fill="#962328"/>
<rect x="156" y="72" width="26" height="22" fill="#1C0207"/>
<rect x="134" y="89" width="70" height="84" rx="28" fill="#1C0207"/>
<path d="M239.071 177.22C246.035 189.892 250 204.463 250 219.966C250 258.253 225.824 290.859 191.987 303.192C191.995 303.117 192 303.042 192 302.966C192 298.969 181.776 295.618 168 294.71V248.452L239.071 177.22ZM157 249.454V294.52C142.306 294.958 130.658 298.121 129.162 302.097C96.8265 289.009 74 257.169 74 219.966C74 204.463 77.964 189.891 84.9277 177.22L157 249.454ZM85.2666 177.216H84.9316C84.9713 177.144 85.0119 177.072 85.0518 177C85.1231 177.072 85.1947 177.144 85.2666 177.216ZM239.068 177.216H238.733C238.805 177.144 238.876 177.072 238.947 177C238.987 177.072 239.029 177.144 239.068 177.216Z" fill="#962328"/>
<ellipse cx="30.5" cy="5.5" rx="30.5" ry="5.5" transform="matrix(1 0 0 -1 155 189)" fill="#6C1C20"/>
<path d="M152.775 183.75C153.347 187.776 167.67 191 185.256 191C202.842 191 217.164 187.776 217.736 183.75H221.512L161.756 246L102 183.75H152.775Z" fill="#962328"/>
<ellipse cx="127.756" cy="183.5" rx="25" ry="5.5" fill="#962328"/>
<path d="M73.728 402.192C73.12 401.936 72.544 401.6 72 401.184C71.456 400.736 71.104 400.368 70.944 400.08C70.944 399.792 70.992 399.6 71.088 399.504C71.184 399.376 71.456 399.328 71.904 399.36C72.384 399.36 73.152 399.424 74.208 399.552C74.592 399.552 75.072 399.52 75.648 399.456C76.224 399.392 76.752 399.296 77.232 399.168C77.744 399.04 78.032 398.88 78.096 398.688C78.256 398.688 78.288 398.64 78.192 398.544C78.096 398.416 77.984 398.288 77.856 398.16C77.728 398.16 77.584 398.112 77.424 398.016C77.264 397.888 77.12 397.824 76.992 397.824C76.992 397.664 76.832 397.488 76.512 397.296C76.224 397.072 75.92 396.896 75.6 396.768C74.896 396.192 74.288 395.68 73.776 395.232C73.264 394.752 73.072 394.432 73.2 394.272C73.2 394.144 73.2 394.08 73.2 394.08C73.2 394.048 73.2 394.032 73.2 394.032C72.976 394.032 72.72 393.712 72.432 393.072C72.176 392.432 72.048 391.856 72.048 391.344C72.048 390.96 72.16 390.48 72.384 389.904C72.608 389.296 72.912 388.672 73.296 388.032C73.68 387.392 74.08 386.864 74.496 386.448C75.072 385.904 75.792 385.328 76.656 384.72C77.52 384.08 78.368 383.52 79.2 383.04C80.064 382.528 80.784 382.192 81.36 382.032C81.936 381.808 82.464 381.696 82.944 381.696C83.456 381.696 83.904 381.808 84.288 382.032C84.608 382.192 84.896 382.432 85.152 382.752C85.44 383.04 85.68 383.344 85.872 383.664C86.096 383.952 86.24 384.208 86.304 384.432C86.304 384.816 86.272 385.248 86.208 385.728C86.144 386.176 86.048 386.576 85.92 386.928C85.824 387.28 85.664 387.456 85.44 387.456C85.44 387.456 85.392 387.472 85.296 387.504C85.232 387.504 85.2 387.584 85.2 387.744C85.2 388.064 84.96 388.432 84.48 388.848C83.872 389.264 83.344 389.52 82.896 389.616C82.448 389.68 82.176 389.504 82.08 389.088C81.984 388.96 81.92 388.848 81.888 388.752C81.856 388.656 81.776 388.608 81.648 388.608C81.648 388.608 81.6 388.56 81.504 388.464C81.408 388.368 81.36 388.208 81.36 387.984C81.36 387.856 81.408 387.744 81.504 387.648C81.6 387.52 81.648 387.456 81.648 387.456C81.808 387.456 82.016 387.28 82.272 386.928C82.528 386.544 82.752 386.144 82.944 385.728C83.168 385.28 83.28 384.976 83.28 384.816C83.28 384.624 83.248 384.512 83.184 384.48C83.152 384.448 83.008 384.432 82.752 384.432C82.304 384.624 81.76 384.88 81.12 385.2C80.48 385.52 79.872 385.84 79.296 386.16C78.752 386.448 78.352 386.72 78.096 386.976C77.968 387.2 77.888 387.344 77.856 387.408C77.824 387.44 77.744 387.456 77.616 387.456C77.616 387.328 77.504 387.392 77.28 387.648C77.088 387.872 76.832 388.192 76.512 388.608C76.224 389.024 75.936 389.44 75.648 389.856C75.392 390.24 75.2 390.528 75.072 390.72C75.008 390.784 74.928 390.976 74.832 391.296C74.768 391.584 74.736 391.856 74.736 392.112C74.608 392.496 74.624 392.768 74.784 392.928C74.944 393.056 75.296 393.344 75.84 393.792C76.96 394.624 77.84 395.312 78.48 395.856C79.12 396.4 79.6 396.848 79.92 397.2C80.24 397.552 80.432 397.872 80.496 398.16C81.072 399.12 81.248 399.856 81.024 400.368C80.8 400.88 80.256 401.328 79.392 401.712C79.072 401.872 78.544 402 77.808 402.096C77.072 402.192 76.32 402.24 75.552 402.24C74.784 402.272 74.176 402.256 73.728 402.192ZM87.6874 400.464C87.4314 400.208 87.2394 399.888 87.1114 399.504C87.0154 399.12 86.9834 398.736 87.0154 398.352C87.0474 397.968 87.1274 397.648 87.2554 397.392C87.2554 397.136 87.2874 396.944 87.3514 396.816C87.4474 396.656 87.4794 396.512 87.4474 396.384C87.4154 396.256 87.4474 396.032 87.5434 395.712C87.6394 395.392 87.7354 395.088 87.8314 394.8C88.0554 394.288 88.2954 393.68 88.5514 392.976C88.8074 392.24 89.0474 391.52 89.2714 390.816C89.4954 390.112 89.6874 389.504 89.8474 388.992C90.0074 388.48 90.1034 388.16 90.1354 388.032C90.1354 387.648 90.3914 387.44 90.9034 387.408C91.2874 387.28 91.5754 387.28 91.7674 387.408C91.9594 387.504 92.2154 387.808 92.5354 388.32C92.7914 388.576 92.8874 388.96 92.8234 389.472C92.7594 389.984 92.5514 390.624 92.1994 391.392C92.0714 391.648 91.9114 392.016 91.7194 392.496C91.5594 392.976 91.4474 393.408 91.3834 393.792C91.2554 394.048 91.0954 394.416 90.9034 394.896C90.7434 395.344 90.5994 395.776 90.4714 396.192C90.4074 396.352 90.3434 396.592 90.2794 396.912C90.2154 397.2 90.1354 397.52 90.0394 397.872C89.9434 398.192 89.8154 398.48 89.6554 398.736C89.3674 400.048 89.0954 400.816 88.8394 401.04C88.6154 401.264 88.2314 401.072 87.6874 400.464ZM92.3434 380.976C92.1834 380.816 92.0394 380.592 91.9114 380.304C91.7834 379.984 91.7034 379.696 91.6714 379.44C91.6394 379.152 91.6714 379.008 91.7674 379.008C92.0234 378.976 92.3274 378.704 92.6794 378.192C93.0314 377.68 93.1754 377.232 93.1114 376.848C93.1114 376.72 93.1594 376.608 93.2554 376.512C93.3514 376.384 93.4634 376.304 93.5914 376.272C93.9754 376.016 94.3434 375.984 94.6954 376.176C95.0794 376.336 95.4314 376.672 95.7514 377.184C96.0394 377.792 96.1194 378.304 95.9914 378.72C95.8634 379.104 95.5114 379.648 94.9354 380.352C94.4554 380.992 94.0074 381.344 93.5914 381.408C93.2074 381.472 92.7914 381.328 92.3434 380.976ZM110.993 401.424C110.673 401.424 110.337 401.248 109.985 400.896C109.665 400.544 109.377 400.112 109.121 399.6C108.897 399.056 108.785 398.544 108.785 398.064C108.785 397.584 108.897 396.688 109.121 395.376C109.377 394.064 109.681 392.736 110.033 391.392C110.289 390.56 110.369 390.08 110.273 389.952C110.177 389.824 109.745 390 108.977 390.48C108.529 390.704 108.129 390.944 107.777 391.2C107.425 391.424 107.121 391.68 106.865 391.968C106.705 392.096 106.465 392.304 106.145 392.592C105.825 392.88 105.489 393.152 105.137 393.408C104.721 393.728 104.193 394.176 103.553 394.752C102.913 395.328 102.273 395.904 101.633 396.48C101.025 397.056 100.561 397.504 100.241 397.824C100.177 397.952 100.081 398.064 99.9525 398.16C99.8245 398.256 99.6805 398.32 99.5205 398.352C99.3605 398.352 99.1845 398.32 98.9925 398.256C98.6405 398.16 98.3045 397.952 97.9845 397.632C97.6965 397.312 97.5525 396.944 97.5525 396.528C97.5525 396.208 97.6805 395.664 97.9365 394.896C98.1925 394.096 98.5285 393.136 98.9445 392.016C99.3925 390.896 99.9045 389.712 100.481 388.464C100.577 388.304 100.657 388.112 100.721 387.888C100.785 387.632 100.833 387.36 100.865 387.072C100.929 386.784 100.961 386.512 100.961 386.256C100.961 386.096 100.977 385.936 101.009 385.776C101.073 385.584 101.137 385.408 101.201 385.248C101.297 385.056 101.377 384.928 101.441 384.864C101.569 384.608 101.793 384.544 102.113 384.672C102.433 384.768 102.705 384.992 102.929 385.344C103.409 385.792 103.648 386.352 103.648 387.024C103.681 387.696 103.521 388.528 103.169 389.52C103.041 389.744 102.929 389.968 102.833 390.192C102.769 390.384 102.705 390.56 102.641 390.72C102.577 390.848 102.529 390.96 102.497 391.056C102.465 391.12 102.449 391.152 102.449 391.152C102.577 391.152 102.865 391.008 103.312 390.72C103.76 390.432 104.289 390.112 104.897 389.76C105.377 389.408 105.793 389.088 106.145 388.8C106.529 388.48 106.849 388.24 107.105 388.08C107.361 387.888 107.521 387.792 107.585 387.792C107.713 387.792 107.873 387.744 108.065 387.648C108.257 387.552 108.417 387.44 108.545 387.312C108.673 387.184 108.769 387.12 108.833 387.12C108.929 387.088 108.977 387.072 108.977 387.072C108.977 387.072 109.041 387.072 109.169 387.072C109.297 387.04 109.425 386.96 109.553 386.832C109.809 386.64 110.145 386.592 110.561 386.688C110.977 386.752 111.361 386.912 111.713 387.168C112.065 387.424 112.241 387.712 112.241 388.032C112.241 388.16 112.273 388.272 112.337 388.368C112.433 388.432 112.481 388.464 112.481 388.464C112.737 388.464 112.897 388.864 112.961 389.664C113.057 390.464 112.977 391.232 112.721 391.968C112.721 392.448 112.625 393.024 112.433 393.696C112.273 394.368 112.129 395.008 112.001 395.616C111.745 396.416 111.569 397.12 111.473 397.728C111.377 398.336 111.361 398.848 111.425 399.264C111.489 399.68 111.601 400.016 111.761 400.272C111.889 400.496 111.889 400.752 111.761 401.04C111.633 401.296 111.377 401.424 110.993 401.424ZM124.634 400.752C124.218 400.944 123.738 401.024 123.194 400.992C122.65 400.96 121.914 400.784 120.986 400.464C120.922 400.464 120.778 400.4 120.554 400.272C120.362 400.144 120.154 399.984 119.93 399.792C119.738 399.568 119.578 399.328 119.45 399.072C118.938 398.336 118.73 397.248 118.826 395.808C118.922 394.368 119.37 392.64 120.17 390.624C120.394 390.144 120.73 389.536 121.178 388.8C121.658 388.064 122.122 387.392 122.57 386.784C123.05 386.144 123.386 385.776 123.578 385.68C123.578 385.68 123.754 385.616 124.106 385.488C124.458 385.36 124.906 385.152 125.45 384.864C125.61 384.8 125.786 384.736 125.978 384.672C126.202 384.608 126.426 384.56 126.65 384.528C126.874 384.496 127.066 384.496 127.226 384.528C127.866 384.56 128.522 384.8 129.194 385.248C129.898 385.664 130.474 386.16 130.922 386.736C131.37 387.28 131.514 387.76 131.354 388.176C131.354 388.24 131.258 388.368 131.066 388.56C130.906 388.72 130.714 388.896 130.49 389.088C130.298 389.248 130.138 389.408 130.01 389.568C129.85 389.76 129.626 389.84 129.338 389.808C129.082 389.776 128.842 389.648 128.618 389.424C128.426 389.168 128.314 388.848 128.282 388.464C128.218 388.208 127.978 387.968 127.562 387.744C127.178 387.52 126.986 387.408 126.986 387.408C126.73 387.408 126.362 387.648 125.882 388.128C125.434 388.576 124.986 389.12 124.538 389.76C123.962 390.336 123.466 391.024 123.05 391.824C122.634 392.592 122.298 393.328 122.042 394.032C121.818 394.704 121.658 395.184 121.562 395.472C121.434 395.792 121.418 396.24 121.514 396.816C121.61 397.392 121.722 397.744 121.85 397.872C121.978 397.936 122.298 397.952 122.81 397.92C123.354 397.888 123.994 397.824 124.73 397.728C125.466 397.6 126.186 397.456 126.89 397.296C127.594 397.136 128.17 396.96 128.618 396.768C129.226 396.384 129.754 396.16 130.202 396.096C130.65 396.032 130.986 396.032 131.21 396.096C131.562 396.224 131.77 396.4 131.834 396.624C131.898 396.848 131.818 397.104 131.594 397.392C131.37 397.648 130.986 397.92 130.442 398.208C129.93 398.464 129.466 398.752 129.05 399.072C128.666 399.36 128.474 399.584 128.474 399.744C128.346 399.744 128.202 399.792 128.042 399.888C127.914 399.952 127.802 399.968 127.706 399.936C127.642 399.936 127.386 399.984 126.938 400.08C126.49 400.176 126.026 400.288 125.546 400.416C125.098 400.544 124.794 400.656 124.634 400.752ZM140.236 402.144C138.828 402.144 137.676 401.616 136.78 400.56C135.884 399.472 135.452 398.128 135.484 396.528C135.548 395.376 135.772 394.144 136.156 392.832C136.572 391.488 137.116 390.208 137.788 388.992C138.46 387.744 139.196 386.656 139.996 385.728C140.796 384.8 141.628 384.144 142.492 383.76C142.812 383.6 143.148 383.472 143.5 383.376C143.884 383.28 144.268 383.232 144.652 383.232C145.004 383.232 145.372 383.296 145.756 383.424C146.14 383.52 146.46 383.632 146.716 383.76C147.26 383.984 147.676 384.256 147.964 384.576C148.252 384.896 148.508 385.392 148.732 386.064C148.828 386.672 148.876 387.104 148.876 387.36C148.876 387.616 148.796 388 148.636 388.512C148.252 389.664 147.756 390.656 147.148 391.488C146.54 392.32 145.724 393.024 144.7 393.6C144.444 393.76 144.14 393.888 143.788 393.984C143.468 394.048 143.132 394.08 142.78 394.08C142.14 394.08 141.516 393.968 140.908 393.744C140.332 393.488 139.868 393.12 139.516 392.64L139.18 392.256L139.036 392.64C138.716 393.504 138.46 394.304 138.268 395.04C138.108 395.776 138.028 396.448 138.028 397.056C138.028 397.44 138.06 397.808 138.124 398.16C138.22 398.512 138.348 398.816 138.508 399.072C138.636 399.264 138.844 399.408 139.132 399.504C139.452 399.568 139.788 399.6 140.14 399.6C140.364 399.6 140.588 399.6 140.812 399.6C141.068 399.568 141.308 399.504 141.532 399.408C142.076 399.216 142.508 399.008 142.828 398.784C143.18 398.56 143.532 398.32 143.884 398.064L144.076 397.968H144.028C144.412 397.776 144.748 397.584 145.036 397.392C145.356 397.2 145.516 397.104 145.516 397.104C145.644 397.104 145.772 397.024 145.9 396.864C146.156 396.736 146.476 396.784 146.86 397.008C147.276 397.232 147.484 397.52 147.484 397.872C147.452 398.032 147.308 398.288 147.052 398.64C146.796 398.96 146.508 399.264 146.188 399.552C145.9 399.84 145.66 400 145.468 400.032C145.436 400.064 145.324 400.128 145.132 400.224C144.94 400.288 144.812 400.352 144.748 400.416H144.796C144.508 400.8 144.22 400.992 143.932 400.992H143.548C143.42 401.216 143.004 401.472 142.3 401.76C141.596 402.016 140.908 402.144 140.236 402.144ZM142.396 391.584C142.972 391.584 143.468 391.424 143.884 391.104C144.332 390.752 144.716 390.368 145.036 389.952C145.676 389.088 146.044 388.256 146.14 387.456C146.268 386.624 146.172 386.048 145.852 385.728C145.66 385.632 145.484 385.584 145.324 385.584C145.196 385.552 144.924 385.6 144.508 385.728C144.22 385.792 143.82 386.032 143.308 386.448C142.796 386.864 142.284 387.328 141.772 387.84C141.292 388.352 140.924 388.784 140.668 389.136L140.044 390.144C140.3 390.048 140.54 390 140.764 390C141.02 389.968 141.164 389.984 141.196 390.048C141.196 390.336 141.244 390.608 141.34 390.864C141.468 391.088 141.612 391.264 141.772 391.392C141.964 391.52 142.172 391.584 142.396 391.584ZM165.695 400.896C165.567 400.832 165.375 400.72 165.118 400.56C164.895 400.368 164.655 400.16 164.398 399.936C164.174 399.68 164.015 399.456 163.919 399.264C163.823 399.104 163.823 398.816 163.919 398.4C164.047 397.984 164.175 397.776 164.303 397.776C164.399 397.84 164.559 397.728 164.783 397.44C165.007 397.152 165.231 396.848 165.455 396.528C165.679 396.176 165.791 395.968 165.791 395.904C165.823 395.776 165.903 395.68 166.031 395.616C166.191 395.52 166.335 395.424 166.463 395.328C166.623 395.072 166.831 394.816 167.087 394.56C167.375 394.272 167.599 394.032 167.759 393.84C168.015 393.52 168.479 393.04 169.151 392.4C169.823 391.76 170.479 391.104 171.119 390.432C171.791 389.696 172.383 389.056 172.895 388.512C173.407 387.936 173.679 387.536 173.711 387.312C173.711 387.312 173.759 387.264 173.855 387.168C173.983 387.04 174.127 386.928 174.287 386.832C174.447 386.736 174.655 386.576 174.911 386.352C175.199 386.128 175.439 385.92 175.631 385.728C175.695 385.472 175.871 385.12 176.159 384.672C176.479 384.192 176.799 383.792 177.119 383.472C177.375 383.088 177.615 382.672 177.839 382.224C178.063 381.744 178.207 381.392 178.271 381.168C178.367 380.816 178.367 380.608 178.271 380.544C178.175 380.448 177.775 380.288 177.071 380.064C176.303 379.808 175.455 379.712 174.527 379.776C173.631 379.808 172.623 380.224 171.503 381.024C171.055 381.12 170.639 381.248 170.255 381.408C169.903 381.568 169.599 381.632 169.343 381.6C169.215 381.536 169.071 381.392 168.911 381.168C168.751 380.944 168.575 380.736 168.383 380.544L167.903 379.536L169.391 378.72C170.703 377.888 171.887 377.312 172.943 376.992C174.031 376.672 175.023 376.656 175.919 376.944C176.271 376.944 176.591 376.992 176.879 377.088C177.167 377.152 177.311 377.184 177.311 377.184C177.567 377.152 177.887 377.296 178.271 377.616C178.655 377.904 179.023 378.272 179.375 378.72C179.759 379.168 180.047 379.616 180.239 380.064C180.751 380.832 180.911 381.648 180.719 382.512C180.559 383.344 180.079 384.352 179.279 385.536C179.119 385.728 178.767 386.128 178.223 386.736C177.679 387.344 177.055 388.032 176.351 388.8C175.679 389.536 175.055 390.192 174.479 390.768C173.935 391.344 173.583 391.712 173.423 391.872C173.199 391.968 172.815 392.304 172.271 392.88C171.759 393.424 171.199 394.032 170.591 394.704C170.015 395.344 169.519 395.92 169.103 396.432C168.719 396.912 168.559 397.152 168.623 397.152C168.591 397.28 168.639 397.344 168.767 397.344C168.895 397.312 169.103 397.248 169.391 397.152C169.871 396.992 170.495 396.832 171.263 396.672C172.063 396.512 172.879 396.384 173.711 396.288C174.543 396.16 175.263 396.08 175.871 396.048C176.511 396.016 176.879 396.048 176.975 396.144C177.039 396.304 177.087 396.368 177.119 396.336C177.183 396.272 177.215 396.24 177.215 396.24C177.279 396.016 177.679 395.952 178.415 396.048C179.183 396.144 179.871 396.288 180.479 396.48C180.831 396.576 181.103 396.656 181.295 396.72C181.519 396.784 181.631 396.88 181.631 397.008C181.631 397.008 181.663 397.088 181.727 397.248C181.823 397.376 181.967 397.552 182.159 397.776C182.671 398.192 182.735 398.464 182.351 398.592C181.967 398.72 181.135 398.672 179.855 398.448C179.023 398.448 178.335 398.496 177.791 398.592C177.663 398.656 177.391 398.688 176.975 398.688C176.559 398.688 176.159 398.704 175.775 398.736C175.199 398.672 174.623 398.704 174.047 398.832C173.471 398.928 172.783 399.104 171.983 399.36C171.695 399.456 171.247 399.6 170.639 399.792C170.031 399.984 169.375 400.176 168.671 400.368C167.967 400.56 167.327 400.704 166.751 400.8C166.207 400.896 165.855 400.928 165.695 400.896ZM193.112 400.992C192.888 400.992 192.536 400.896 192.056 400.704C191.608 400.48 191.128 400.224 190.616 399.936C190.104 399.616 189.688 399.312 189.368 399.024C188.664 398.352 188.072 397.536 187.592 396.576C187.112 395.616 186.776 394.592 186.584 393.504C186.392 392.384 186.376 391.312 186.536 390.288C186.888 388.24 187.656 386.224 188.84 384.24C190.024 382.224 191.384 380.56 192.92 379.248C193.752 378.512 194.504 377.952 195.176 377.568C195.848 377.152 196.664 376.832 197.624 376.608C197.976 376.512 198.36 376.464 198.776 376.464C199.192 376.432 199.512 376.416 199.736 376.416C200.376 376.416 201.016 376.544 201.656 376.8C202.296 377.056 202.84 377.376 203.288 377.76C203.736 378.112 203.96 378.448 203.96 378.768C203.96 378.992 203.944 379.168 203.912 379.296C203.88 379.392 203.736 379.376 203.48 379.248H203L203.48 380.64C203.608 380.896 203.72 381.248 203.816 381.696C203.912 382.112 203.96 382.496 203.96 382.848C203.96 383.136 203.912 383.6 203.816 384.24C203.72 384.848 203.592 385.504 203.432 386.208C203.272 386.912 203.112 387.568 202.952 388.176C202.792 388.784 202.648 389.232 202.52 389.52C202.424 389.712 202.36 389.904 202.328 390.096C202.328 390.256 202.328 390.4 202.328 390.528C202.2 390.752 201.992 391.184 201.704 391.824C201.448 392.464 201.256 392.912 201.128 393.168C201 393.296 200.888 393.408 200.792 393.504C200.728 393.6 200.76 393.712 200.888 393.84C200.888 393.904 200.808 394.112 200.648 394.464C200.488 394.784 200.312 395.088 200.12 395.376C199.96 395.664 199.832 395.808 199.736 395.808C199.736 395.808 199.688 395.824 199.592 395.856C199.528 395.856 199.496 395.904 199.496 396C199.496 396.128 199.288 396.464 198.872 397.008C198.456 397.52 197.96 398.064 197.384 398.64C197.064 398.96 196.616 399.312 196.04 399.696C195.496 400.048 194.952 400.352 194.408 400.608C193.864 400.864 193.432 400.992 193.112 400.992ZM192.968 397.968C193.32 397.968 193.656 397.92 193.976 397.824C194.296 397.696 194.568 397.52 194.792 397.296C195.368 396.912 196.04 396.288 196.808 395.424C197.576 394.528 198.136 393.664 198.488 392.832C198.84 392.352 199.112 391.856 199.304 391.344C199.528 390.8 199.864 389.888 200.312 388.608C200.568 388.256 200.744 387.824 200.84 387.312C200.936 386.8 200.984 386.368 200.984 386.016C200.984 385.664 200.984 385.184 200.984 384.576C201.016 383.968 201.096 383.456 201.224 383.04C201.224 382.208 201.208 381.664 201.176 381.408C201.144 381.12 201.016 380.848 200.792 380.592C200.664 380.496 200.488 380.4 200.264 380.304C200.072 380.208 199.864 380.16 199.64 380.16C199.416 380.16 199 380.288 198.392 380.544C197.784 380.768 197.352 380.96 197.096 381.12C196.872 381.248 196.616 381.264 196.328 381.168C196.072 381.072 195.944 380.944 195.944 380.784C195.944 380.336 195.656 380.304 195.08 380.688C194.504 381.04 193.864 381.648 193.16 382.512C192.584 383.088 192.088 383.68 191.672 384.288C191.288 384.864 191.096 385.216 191.096 385.344C191.096 385.472 191.048 385.632 190.952 385.824C190.856 386.016 190.76 386.24 190.664 386.496C190.504 386.72 190.312 387.088 190.088 387.6C189.864 388.112 189.64 388.624 189.416 389.136C189.224 389.616 189.096 389.984 189.032 390.24C189.032 390.368 189.032 390.72 189.032 391.296C189.032 391.84 189.032 392.352 189.032 392.832C189.032 393.376 189.048 393.84 189.08 394.224C189.144 394.608 189.224 394.944 189.32 395.232C189.416 395.488 189.544 395.776 189.704 396.096C189.832 396.32 190.024 396.592 190.28 396.912C190.568 397.2 190.76 397.408 190.856 397.536C191.208 397.856 191.496 398.048 191.72 398.112C191.944 398.144 192.36 398.096 192.968 397.968ZM208.913 400.896C208.785 400.832 208.593 400.72 208.337 400.56C208.113 400.368 207.873 400.16 207.617 399.936C207.393 399.68 207.233 399.456 207.137 399.264C207.041 399.104 207.041 398.816 207.137 398.4C207.265 397.984 207.393 397.776 207.521 397.776C207.617 397.84 207.777 397.728 208.001 397.44C208.225 397.152 208.449 396.848 208.673 396.528C208.897 396.176 209.009 395.968 209.009 395.904C209.041 395.776 209.121 395.68 209.249 395.616C209.409 395.52 209.553 395.424 209.681 395.328C209.841 395.072 210.049 394.816 210.305 394.56C210.593 394.272 210.817 394.032 210.977 393.84C211.233 393.52 211.697 393.04 212.369 392.4C213.041 391.76 213.697 391.104 214.337 390.432C215.009 389.696 215.601 389.056 216.113 388.512C216.625 387.936 216.897 387.536 216.929 387.312C216.929 387.312 216.977 387.264 217.073 387.168C217.201 387.04 217.345 386.928 217.505 386.832C217.665 386.736 217.873 386.576 218.129 386.352C218.417 386.128 218.657 385.92 218.849 385.728C218.913 385.472 219.089 385.12 219.377 384.672C219.697 384.192 220.017 383.792 220.337 383.472C220.593 383.088 220.833 382.672 221.057 382.224C221.281 381.744 221.425 381.392 221.489 381.168C221.585 380.816 221.585 380.608 221.489 380.544C221.393 380.448 220.993 380.288 220.289 380.064C219.521 379.808 218.673 379.712 217.745 379.776C216.849 379.808 215.841 380.224 214.721 381.024C214.273 381.12 213.857 381.248 213.473 381.408C213.121 381.568 212.817 381.632 212.561 381.6C212.433 381.536 212.289 381.392 212.129 381.168C211.969 380.944 211.793 380.736 211.601 380.544L211.121 379.536L212.609 378.72C213.921 377.888 215.105 377.312 216.161 376.992C217.249 376.672 218.241 376.656 219.137 376.944C219.489 376.944 219.809 376.992 220.097 377.088C220.385 377.152 220.529 377.184 220.529 377.184C220.785 377.152 221.105 377.296 221.489 377.616C221.873 377.904 222.241 378.272 222.593 378.72C222.977 379.168 223.265 379.616 223.457 380.064C223.969 380.832 224.129 381.648 223.937 382.512C223.777 383.344 223.297 384.352 222.497 385.536C222.337 385.728 221.985 386.128 221.441 386.736C220.897 387.344 220.273 388.032 219.569 388.8C218.897 389.536 218.273 390.192 217.697 390.768C217.153 391.344 216.801 391.712 216.641 391.872C216.417 391.968 216.033 392.304 215.489 392.88C214.977 393.424 214.417 394.032 213.809 394.704C213.233 395.344 212.737 395.92 212.321 396.432C211.937 396.912 211.777 397.152 211.841 397.152C211.809 397.28 211.857 397.344 211.985 397.344C212.113 397.312 212.321 397.248 212.609 397.152C213.089 396.992 213.713 396.832 214.481 396.672C215.281 396.512 216.097 396.384 216.929 396.288C217.761 396.16 218.481 396.08 219.089 396.048C219.729 396.016 220.097 396.048 220.193 396.144C220.257 396.304 220.305 396.368 220.337 396.336C220.401 396.272 220.433 396.24 220.433 396.24C220.497 396.016 220.897 395.952 221.633 396.048C222.401 396.144 223.089 396.288 223.697 396.48C224.049 396.576 224.321 396.656 224.513 396.72C224.737 396.784 224.849 396.88 224.849 397.008C224.849 397.008 224.881 397.088 224.945 397.248C225.041 397.376 225.185 397.552 225.377 397.776C225.889 398.192 225.953 398.464 225.569 398.592C225.185 398.72 224.353 398.672 223.073 398.448C222.241 398.448 221.553 398.496 221.009 398.592C220.881 398.656 220.609 398.688 220.193 398.688C219.777 398.688 219.377 398.704 218.993 398.736C218.417 398.672 217.841 398.704 217.265 398.832C216.689 398.928 216.001 399.104 215.201 399.36C214.913 399.456 214.465 399.6 213.857 399.792C213.249 399.984 212.593 400.176 211.889 400.368C211.185 400.56 210.545 400.704 209.969 400.8C209.425 400.896 209.073 400.928 208.913 400.896ZM230.523 400.896C230.395 400.832 230.203 400.72 229.947 400.56C229.723 400.368 229.483 400.16 229.227 399.936C229.003 399.68 228.843 399.456 228.747 399.264C228.651 399.104 228.651 398.816 228.747 398.4C228.875 397.984 229.003 397.776 229.131 397.776C229.227 397.84 229.387 397.728 229.611 397.44C229.835 397.152 230.059 396.848 230.283 396.528C230.507 396.176 230.619 395.968 230.619 395.904C230.651 395.776 230.731 395.68 230.859 395.616C231.019 395.52 231.163 395.424 231.291 395.328C231.451 395.072 231.659 394.816 231.915 394.56C232.203 394.272 232.427 394.032 232.587 393.84C232.843 393.52 233.307 393.04 233.979 392.4C234.651 391.76 235.307 391.104 235.947 390.432C236.619 389.696 237.211 389.056 237.723 388.512C238.235 387.936 238.507 387.536 238.539 387.312C238.539 387.312 238.587 387.264 238.683 387.168C238.811 387.04 238.955 386.928 239.115 386.832C239.275 386.736 239.483 386.576 239.739 386.352C240.027 386.128 240.267 385.92 240.459 385.728C240.523 385.472 240.699 385.12 240.987 384.672C241.307 384.192 241.627 383.792 241.947 383.472C242.203 383.088 242.443 382.672 242.667 382.224C242.891 381.744 243.035 381.392 243.099 381.168C243.195 380.816 243.195 380.608 243.099 380.544C243.003 380.448 242.603 380.288 241.899 380.064C241.131 379.808 240.283 379.712 239.355 379.776C238.459 379.808 237.451 380.224 236.331 381.024C235.883 381.12 235.467 381.248 235.083 381.408C234.731 381.568 234.427 381.632 234.171 381.6C234.043 381.536 233.899 381.392 233.739 381.168C233.579 380.944 233.403 380.736 233.211 380.544L232.731 379.536L234.219 378.72C235.531 377.888 236.715 377.312 237.771 376.992C238.859 376.672 239.851 376.656 240.747 376.944C241.099 376.944 241.419 376.992 241.707 377.088C241.995 377.152 242.139 377.184 242.139 377.184C242.395 377.152 242.715 377.296 243.099 377.616C243.483 377.904 243.851 378.272 244.203 378.72C244.587 379.168 244.875 379.616 245.067 380.064C245.579 380.832 245.739 381.648 245.547 382.512C245.387 383.344 244.907 384.352 244.107 385.536C243.947 385.728 243.595 386.128 243.051 386.736C242.507 387.344 241.883 388.032 241.179 388.8C240.507 389.536 239.883 390.192 239.307 390.768C238.763 391.344 238.411 391.712 238.251 391.872C238.027 391.968 237.643 392.304 237.099 392.88C236.587 393.424 236.027 394.032 235.419 394.704C234.843 395.344 234.347 395.92 233.931 396.432C233.547 396.912 233.387 397.152 233.451 397.152C233.419 397.28 233.467 397.344 233.595 397.344C233.723 397.312 233.931 397.248 234.219 397.152C234.699 396.992 235.323 396.832 236.091 396.672C236.891 396.512 237.707 396.384 238.539 396.288C239.371 396.16 240.091 396.08 240.699 396.048C241.339 396.016 241.707 396.048 241.803 396.144C241.867 396.304 241.915 396.368 241.947 396.336C242.011 396.272 242.043 396.24 242.043 396.24C242.107 396.016 242.507 395.952 243.243 396.048C244.011 396.144 244.699 396.288 245.307 396.48C245.659 396.576 245.931 396.656 246.123 396.72C246.347 396.784 246.459 396.88 246.459 397.008C246.459 397.008 246.491 397.088 246.555 397.248C246.651 397.376 246.795 397.552 246.987 397.776C247.499 398.192 247.563 398.464 247.179 398.592C246.795 398.72 245.963 398.672 244.683 398.448C243.851 398.448 243.163 398.496 242.619 398.592C242.491 398.656 242.219 398.688 241.803 398.688C241.387 398.688 240.987 398.704 240.603 398.736C240.027 398.672 239.451 398.704 238.875 398.832C238.299 398.928 237.611 399.104 236.811 399.36C236.523 399.456 236.075 399.6 235.467 399.792C234.859 399.984 234.203 400.176 233.499 400.368C232.795 400.56 232.155 400.704 231.579 400.8C231.035 400.896 230.683 400.928 230.523 400.896Z" fill="#962328"/>
<path d="M234.709 195.059C242.155 211.096 243.462 229.652 236.873 247.077C228.89 268.19 211.116 282.88 190.19 288.342C206.349 278.145 220.252 261.347 228.283 240.107C234.039 224.883 236.024 209.375 234.709 195.059Z" fill="#6C1C20"/>
<defs>
<filter id="filter0_d_4_123" x="150.031" y="0.0306244" width="37.9151" height="22.98" filterUnits="userSpaceOnUse" color-interpolation-filters="sRGB">
<feFlood flood-opacity="0" result="BackgroundImageFix"/>
<feColorMatrix in="SourceAlpha" type="matrix" values="0 0 0 0 0 0 0 0 0 0 0 0 0 0 0 0 0 0 127 0" result="hardAlpha"/>
<feOffset dy="4"/>
<feGaussianBlur stdDeviation="2"/>
<feComposite in2="hardAlpha" operator="out"/>
<feColorMatrix type="matrix" values="0 0 0 0 0 0 0 0 0 0 0 0 0 0 0 0 0 0 0.25 0"/>
<feBlend mode="normal" in2="BackgroundImageFix" result="effect1_dropShadow_4_123"/>
<feBlend mode="normal" in="SourceGraphic" in2="effect1_dropShadow_4_123" result="shape"/>
</filter>
</defs>
</svg>
