<svg width="195" height="299" viewBox="0 0 195 299" fill="none" xmlns="http://www.w3.org/2000/svg">
<path d="M59.2532 0L46.2422 29.7912H56.4625L58.4558 24.6085H69.7997L71.793 29.7912H82.1583L69.1473 0H59.2532ZM61.2102 17.3601L64.1096 9.85791L67.009 17.3601H61.2102Z" fill="white"/>
<path d="M105.314 1.37722C103.285 0.471167 100.893 0 98.102 0H83.75V29.7912H93.7891V22.4702H98.102C100.893 22.4702 103.285 21.9991 105.314 21.093C107.344 20.187 108.902 18.8822 110.026 17.2151C111.149 15.5479 111.693 13.5546 111.693 11.2714C111.693 8.98809 111.149 6.99476 110.026 5.29137C108.902 3.55174 107.344 2.28328 105.314 1.37722ZM100.53 13.7721C99.8778 14.3882 98.8268 14.7144 97.4496 14.7144H93.7891V7.71962H97.4496C98.8268 7.71962 99.8778 8.04579 100.53 8.6619C101.183 9.27802 101.545 10.1479 101.545 11.1989C101.545 12.3224 101.219 13.156 100.53 13.7721Z" fill="white"/>
<path d="M141.19 5.25515C140.066 3.55176 138.508 2.28328 136.478 1.37722C134.449 0.471167 132.057 0 129.266 0H114.914V29.7912H124.953V22.4702H129.266C132.057 22.4702 134.449 21.9991 136.478 21.093C138.508 20.187 140.066 18.8822 141.19 17.2151C142.313 15.5479 142.857 13.5546 142.857 11.2714C142.857 8.95185 142.313 6.95854 141.19 5.25515ZM131.73 13.7721C131.078 14.3882 130.027 14.7144 128.65 14.7144H124.989V7.71962H128.65C130.027 7.71962 131.078 8.04579 131.73 8.6619C132.383 9.27802 132.745 10.1479 132.745 11.1989C132.745 12.3224 132.383 13.156 131.73 13.7721Z" fill="white"/>
<path d="M94.3041 50.2319L43.0937 68.3168L35.6641 81.6177C35.6641 81.6177 38.5635 174.905 38.5635 175.703C38.5635 176.5 39.8319 187.808 40.5568 187.808C41.3179 187.808 96.1887 206.726 96.1887 206.726L151.821 185.633L154.575 173.601L152.147 71.2887L133.265 63.7503L107.859 52.9501L94.3041 50.2319Z" fill="#FF0334"/>
<path d="M152.137 99.0864H39.6406V104.088H152.137V99.0864Z" fill="white"/>
<path d="M151.782 109.089H40.5547V111.445H151.782V109.089Z" fill="white"/>
<path d="M151.782 105.61H40.5547V107.966H151.782V105.61Z" fill="white"/>
<path d="M142.76 147.615L144.717 147.796C139.752 136.271 129.713 137.938 129.713 137.938C129.713 137.938 129.061 135.981 129.097 135.184C129.133 134.386 129.423 134.278 129.641 133.698C129.822 133.118 127.212 131.596 127.212 131.596L126.56 128.733C130.075 129.53 130.873 125.58 130.873 125.58C133.12 117.932 127.502 117.643 127.502 117.643L128.082 116.41C129.097 114.163 126.379 113.62 126.379 113.62C127.212 112.387 126.125 110.612 123.588 109.742C121.051 108.872 120.181 112.605 120.181 112.605C117.391 109.597 112.86 107.64 112.86 107.64C113.549 105.248 110.976 105.465 110.976 105.465C110.36 104.668 108.113 104.668 108.113 104.668C106.663 103.834 105.141 105.175 105.141 105.175C103.401 102.566 100.103 100.862 100.103 100.862C103.51 99.8838 102.712 93.4327 102.712 93.4327C102.712 93.4327 104.742 93.2877 106.337 91.4393C107.931 89.5547 102.966 88.9386 102.966 88.9386C102.966 88.9386 101.698 85.1332 96.2251 84.9519C90.7525 84.7707 89.7015 89.9172 89.7015 89.9172V94.4837L91.4411 96.8032L88.5055 96.2958C84.3014 96.1146 83.3954 100.391 83.3954 100.391L80.5684 110.213L69.732 107.93L51.8283 111.771L50.9948 134.278L67.7025 132.212L69.2246 133.952L66.5065 135.003L67.3762 133.19L52.8069 134.713L54.9089 135.51V136.561C54.2566 136.815 53.8216 137.54 53.9666 138.301C54.0753 138.88 54.5465 139.352 55.1264 139.46C56.1049 139.678 56.9747 138.917 56.9747 137.974C56.9747 137.358 56.6123 136.815 56.0687 136.597V135.51L61.9762 137.141C59.6204 138.373 57.4096 140.946 57.4096 140.946C57.4096 140.946 55.4888 140.946 54.9089 140.729C54.3291 140.548 53.6767 140.076 53.1693 139.859C52.6619 139.605 50.2699 140.801 50.1974 143.592C50.0887 146.383 54.0029 145.513 54.0029 145.513L50.8135 150.587H55.3076L55.9599 151.384C55.8875 151.312 55.2351 151.384 55.1264 151.384C54.4015 151.384 53.6404 151.312 52.9518 151.565C51.8646 151.964 52.1545 153.631 53.2418 153.776C53.278 153.776 60.8527 154.682 60.8527 154.682L53.0606 154.392C52.7344 154.392 52.4082 154.537 52.227 154.827L50.2337 157.98C49.2189 159.575 50.3424 161.641 52.227 161.641H57.1559C56.7935 161.641 58.1345 166.388 58.3519 166.787C59.113 168.418 60.2003 169.904 61.6137 171.027C64.4406 173.274 68.3548 173.637 71.7616 172.658C76.1831 171.354 79.4812 167.403 80.9671 163.127C81.0033 163.018 81.0396 162.909 81.0759 162.764L82.1994 162.8L82.598 164.033L105.104 165.12L106.373 163.851H108.475L109.635 162.837L113.042 162.619C113.042 162.619 112.824 162.728 113.73 163.598C114.636 164.468 116.231 163.127 116.231 163.127C116.05 163.272 116.774 165.156 116.883 165.374C117.173 166.207 117.499 167.005 117.934 167.766C118.695 169.179 119.746 170.52 121.051 171.499C127.249 176.065 135.258 172.731 139.68 167.403C141.637 165.047 142.978 162.184 143.558 159.176C144.282 155.479 144.065 151.457 142.905 147.869C142.796 147.796 142.76 147.687 142.76 147.615Z" fill="#FF0334"/>
<path d="M127.429 175.739C124.784 175.739 122.138 174.978 119.71 173.202C118.26 172.115 116.992 170.629 115.977 168.817C115.542 167.983 115.107 167.077 114.781 166.098L114.745 166.026C114.745 166.026 114.745 166.026 114.745 165.99C113.839 166.098 112.933 165.845 112.171 165.156C112.063 165.047 111.954 164.939 111.845 164.83L110.359 164.939L109.743 165.482C109.345 165.808 108.873 165.99 108.366 165.99H107.134L106.481 166.642C106.046 167.077 105.503 167.294 104.887 167.258L82.3802 166.171C82.199 166.171 82.0541 166.135 81.9091 166.098C79.8071 170.302 76.2916 173.528 72.2687 174.688C67.9196 175.956 63.4256 175.231 60.2363 172.694C58.6054 171.426 57.2644 169.686 56.3583 167.693C56.1409 167.186 55.6335 165.374 55.4523 164.757C55.3435 164.395 55.271 164.069 55.1985 163.743H52.118C50.4871 163.743 49.0011 162.837 48.2038 161.423C47.4065 160.01 47.4789 158.234 48.3487 156.857L50.2696 153.812C50.1609 153.559 50.0884 153.269 50.0521 152.979C50.0521 152.834 50.0159 152.725 50.0159 152.58C49.5448 152.399 49.1098 152.073 48.8561 151.601C48.4937 150.949 48.4937 150.116 48.9286 149.463L50.3059 147.289C49.9797 147.144 49.6535 146.962 49.3636 146.709C48.4575 145.948 47.9501 144.824 48.0226 143.483C48.0951 141.309 49.1823 139.388 50.9582 138.301C51.2481 138.119 51.5019 138.011 51.7918 137.902C51.7918 137.467 51.9005 137.068 52.0455 136.67H52.0093C51.7918 136.597 51.6106 136.488 51.4294 136.343L51.1757 136.38C50.5596 136.452 49.9434 136.271 49.5085 135.836C49.0736 135.437 48.8199 134.821 48.8199 134.205L49.6535 111.699C49.6897 110.756 50.3783 109.923 51.3206 109.742L69.2243 105.9C69.5143 105.827 69.8042 105.827 70.0941 105.9L79.046 107.785L81.293 99.8837C81.7279 97.9629 83.5763 94.5924 87.5267 94.2299V89.9171C87.5267 89.7721 87.5267 89.6272 87.5629 89.5184C88.0341 87.1264 90.4985 82.6686 96.2248 82.8861C101.009 83.0673 103.292 85.5318 104.271 87.0539C106.046 87.4164 107.895 88.1775 108.475 89.7359C108.873 90.7507 108.656 91.8742 107.859 92.8165C106.88 93.9762 105.757 94.6286 104.851 95.0273C104.851 96.6219 104.633 98.9052 103.546 100.681C104.234 101.188 104.959 101.841 105.648 102.566C106.518 102.276 107.532 102.203 108.547 102.638C109.489 102.674 110.722 102.856 111.7 103.472C112.461 103.58 113.512 103.87 114.273 104.776C114.563 105.139 114.89 105.682 114.998 106.444C116.158 107.023 117.861 108.002 119.492 109.27C119.855 108.799 120.326 108.401 120.87 108.074C121.884 107.495 123.044 107.422 124.204 107.821C126.378 108.546 127.901 109.923 128.444 111.554C128.553 111.844 128.625 112.17 128.625 112.46C129.097 112.786 129.568 113.257 129.894 113.873C130.184 114.453 130.438 115.323 130.184 116.41C130.872 116.809 131.561 117.353 132.177 118.186C133.554 120.143 133.772 122.789 132.83 126.123C132.685 126.703 132.068 128.914 130.184 130.146C129.93 130.291 129.676 130.436 129.423 130.545C130.981 131.632 132.105 132.828 131.561 134.386C131.416 134.785 131.271 135.039 131.162 135.22C131.162 135.22 131.162 135.256 131.126 135.256C131.126 135.329 131.162 135.51 131.199 135.727C135.656 135.764 142.724 138.083 146.565 146.962C146.855 147.651 146.783 148.412 146.348 149.028C146.13 149.354 145.804 149.572 145.442 149.717C146.094 152.942 146.13 156.349 145.478 159.539C144.789 162.909 143.304 166.098 141.129 168.672C137.831 172.767 132.648 175.739 127.429 175.739ZM118.224 163.163C118.296 163.344 118.405 163.743 118.695 164.54L118.731 164.685C118.985 165.446 119.311 166.171 119.637 166.787C120.326 168.055 121.232 169.107 122.174 169.831C127.284 173.601 134.098 170.701 137.94 166.062C139.643 163.996 140.839 161.459 141.383 158.777C142.071 155.407 141.854 151.746 140.803 148.557V148.521C140.803 148.485 140.767 148.412 140.767 148.376C140.513 147.687 140.622 146.962 141.057 146.383C141.165 146.274 141.238 146.165 141.383 146.056C136.961 139.098 130.329 140.004 130.003 140.04C128.988 140.185 128.009 139.605 127.683 138.627C127.393 137.757 126.922 136.162 126.958 135.147C126.958 134.749 127.031 134.386 127.103 134.096C126.777 133.879 126.415 133.625 126.088 133.444C125.581 133.154 125.255 132.683 125.11 132.103L124.458 129.24C124.276 128.551 124.494 127.79 125.001 127.283C125.509 126.776 126.233 126.558 126.958 126.703C127.538 126.848 127.792 126.667 127.901 126.631C128.372 126.341 128.698 125.507 128.77 125.181C128.77 125.108 128.807 125.072 128.807 125.036C129.387 123.006 129.387 121.448 128.807 120.614C128.299 119.889 127.357 119.781 127.357 119.781C126.668 119.744 126.016 119.382 125.654 118.766C125.291 118.15 125.255 117.425 125.545 116.809L126.016 115.794C125.98 115.758 125.907 115.758 125.871 115.758C125.182 115.649 124.603 115.178 124.349 114.526C124.095 113.946 124.168 113.33 124.421 112.786C124.276 112.569 123.805 112.134 122.863 111.807C122.645 112.025 122.319 112.641 122.174 113.185C121.993 113.946 121.413 114.526 120.652 114.707C119.891 114.888 119.13 114.671 118.586 114.127C116.557 111.916 113.114 110.177 111.99 109.669C111.193 109.307 110.686 108.509 110.722 107.676C110.251 107.64 109.816 107.422 109.453 107.06C109.163 106.951 108.547 106.878 108.076 106.878C107.714 106.878 107.351 106.77 107.025 106.589C106.916 106.589 106.59 106.77 106.518 106.842C106.083 107.241 105.467 107.458 104.851 107.386C104.234 107.313 103.691 106.987 103.365 106.444C101.987 104.342 99.1605 102.856 99.1242 102.856C98.3631 102.457 97.9282 101.66 98.0007 100.79C98.0732 99.92 98.6893 99.2314 99.4866 98.9777C100.501 98.6877 100.828 95.7521 100.574 93.795C100.501 93.2151 100.646 92.6353 101.009 92.1641C101.408 91.7292 101.915 91.4755 102.495 91.4393C102.567 91.4393 102.893 91.3668 103.256 91.2218C103.038 91.1856 102.821 91.1493 102.603 91.1131C101.77 91.0044 101.118 90.497 100.9 89.7359C100.755 89.4097 99.7403 87.2714 96.0436 87.1627C92.8543 87.0539 91.912 89.446 91.6945 90.3158V93.94L93.0355 95.7158C93.5429 96.4044 93.6154 97.3468 93.1442 98.0716C92.7093 98.7965 91.8395 99.1951 91.0059 99.0501L88.2153 98.579H88.179C86.0407 98.579 85.4609 100.645 85.3521 101.043C85.3521 101.08 85.3522 101.116 85.3159 101.152L82.489 110.974C82.1991 112.025 81.1118 112.677 80.0607 112.46L69.6592 110.249L53.7851 113.656L53.0965 132.067L67.3397 130.327C68.0283 130.255 68.7169 130.508 69.1518 131.016L70.674 132.755C71.1452 133.263 71.2901 133.988 71.1452 134.64C71.0002 135.292 70.4928 135.836 69.8767 136.09L67.231 136.996C66.4337 137.286 65.5276 137.105 64.9477 136.452C64.7303 136.198 64.5491 135.909 64.4766 135.619L63.5343 135.727C63.8242 136.054 64.0417 136.488 64.0779 136.923C64.1867 137.793 63.7155 138.59 62.9544 138.989C61.3235 139.859 59.5476 141.671 59.004 142.323C58.6053 142.795 58.0254 143.048 57.4093 143.048C56.3945 143.048 55.0173 142.976 54.2563 142.722C53.7851 142.577 53.314 142.323 52.9515 142.106C52.6978 142.36 52.3354 142.795 52.2992 143.519C52.6254 143.556 53.1328 143.556 53.5314 143.447C54.365 143.266 55.1986 143.592 55.706 144.281C56.1771 144.969 56.2133 145.875 55.7784 146.6L54.5824 148.485H55.271C55.9234 148.485 56.5033 148.775 56.9019 149.282L57.5181 150.043C57.5181 150.079 57.5543 150.079 57.5543 150.116C58.0255 150.732 58.0979 151.565 57.808 152.218C59.4751 152.435 61.0335 152.616 61.0335 152.616C62.1571 152.761 62.9544 153.74 62.8819 154.863C62.8095 155.987 61.8309 156.82 60.7074 156.784L53.5676 156.494L51.9005 159.104C51.8643 159.14 51.7918 159.249 51.9005 159.394C51.973 159.539 52.118 159.539 52.1542 159.539H57.0831C58.2429 159.539 59.1852 160.481 59.1852 161.641C59.1852 161.786 59.1852 161.894 59.149 162.039C59.294 162.945 59.9825 165.374 60.2 165.953C60.8523 167.331 61.7584 168.527 62.8457 169.36C64.9477 171.027 68.1008 171.498 71.1089 170.629C74.5157 169.614 77.5238 166.497 78.901 162.438V162.402C78.9373 162.329 78.9373 162.293 78.9735 162.22C79.2272 161.278 80.097 160.662 81.0756 160.698L82.1991 160.735C83.0327 160.771 83.7212 161.278 84.0474 162.039L104.162 162.982L104.778 162.365C105.177 161.967 105.72 161.749 106.264 161.749H107.605L108.185 161.242C108.547 160.952 108.982 160.771 109.417 160.735L112.824 160.517C113.621 160.445 114.382 160.879 114.781 161.532C114.817 161.532 114.817 161.496 114.853 161.496C115.759 160.771 117.064 160.88 117.789 161.786C118.079 162.184 118.224 162.692 118.224 163.163ZM117.825 164.323C117.717 164.467 117.608 164.576 117.463 164.721C117.644 164.612 117.753 164.467 117.825 164.323Z" fill="#FF0334"/>
<path d="M153.273 167.874V184.944C153.273 184.944 149.54 185.524 147.474 187.336C146.205 188.025 145.408 189.656 143.995 190.127L131.745 193.316C123.953 195.31 118.661 201.978 117.212 202.377C115.363 202.921 93.9077 206.799 93.9077 206.799L51.8304 192.881C49.221 191.577 45.0169 188.025 43.1685 185.959L37.9134 178.674L37.8047 167.874H153.273Z" fill="#5A5A5A"/>
<path d="M57.4499 253.515C60.0593 252.283 62.0889 250.507 63.5386 248.223C64.9882 245.94 65.7131 243.186 65.7131 239.996C65.7131 236.843 64.9882 234.125 63.5386 231.842C62.0889 229.559 60.0593 227.819 57.4499 226.55C54.8404 225.318 51.8323 224.702 48.4255 224.702H33.3125V255.399H48.4255C51.8323 255.363 54.8404 254.747 57.4499 253.515ZM43.6416 247.317V232.748H47.9906C49.4403 232.748 50.745 233.038 51.8323 233.581C52.9196 234.125 53.7894 234.959 54.4055 236.046C55.0217 237.133 55.3116 238.438 55.3116 239.996C55.3116 241.591 55.0217 242.896 54.4055 244.019C53.7894 245.107 52.9196 245.94 51.8323 246.484C50.745 247.027 49.4403 247.317 47.9906 247.317H43.6416Z" fill="white"/>
<path d="M73.1868 251.558C74.7452 253.007 76.5573 254.131 78.6956 254.928C80.7977 255.726 83.1172 256.124 85.6541 256.124C88.1548 256.124 90.4381 255.726 92.5401 254.928C94.6422 254.131 96.4543 253.007 98.0128 251.558C99.5712 250.108 100.767 248.405 101.637 246.448C102.507 244.49 102.942 242.352 102.942 240.033C102.942 237.677 102.507 235.539 101.637 233.618C100.767 231.661 99.5712 229.994 98.0128 228.544C96.4543 227.094 94.6422 225.971 92.5401 225.173C90.4381 224.376 88.1186 223.977 85.6179 223.977C83.1172 223.977 80.8339 224.376 78.6956 225.173C76.5936 225.971 74.7452 227.094 73.1868 228.544C71.6283 229.994 70.4324 231.697 69.5625 233.618C68.6927 235.575 68.2578 237.713 68.2578 240.033C68.2578 242.352 68.6927 244.49 69.5625 246.448C70.4324 248.405 71.6283 250.108 73.1868 251.558ZM79.2392 236.807C79.6016 235.865 80.0728 235.067 80.7252 234.379C81.3413 233.727 82.0662 233.219 82.8997 232.857C83.7333 232.494 84.6393 232.313 85.5816 232.313C86.5602 232.313 87.43 232.494 88.2636 232.857C89.0971 233.219 89.822 233.727 90.4381 234.379C91.0542 235.031 91.5616 235.829 91.924 236.807C92.2864 237.749 92.4677 238.837 92.4677 240.033C92.4677 241.229 92.2864 242.316 91.924 243.258C91.5616 244.201 91.0904 244.998 90.4381 245.686C89.822 246.339 89.0971 246.846 88.2636 247.209C87.43 247.571 86.5239 247.752 85.5816 247.752C84.6031 247.752 83.7333 247.571 82.8997 247.209C82.0662 246.846 81.3413 246.339 80.7252 245.686C80.109 245.034 79.6016 244.237 79.2392 243.258C78.8768 242.316 78.6956 241.229 78.6956 240.033C78.7319 238.837 78.8768 237.749 79.2392 236.807Z" fill="white"/>
<path d="M116.087 241.881L122.756 252.609H127.322L133.991 241.374L134.063 255.363H143.486L143.414 224.702H134.897L125.184 241.011L115.181 224.702H106.664V255.363H116.087V241.881Z" fill="white"/>
<path d="M158.821 224.702H148.492V255.399H158.821V224.702Z" fill="white"/>
<path d="M9.38677 286.894H21.3467V280.008H9.38677V276.71H23.0139V269.498H0V297.839H23.5575V290.627H9.38677V286.894Z" fill="white"/>
<path d="M55.269 269.498H45.0125L40.301 276.601L35.4808 269.498H24.753L34.6472 283.524L24.3906 297.839H35.2996L40.0473 290.265L44.94 297.839H55.8852L45.4474 283.197L55.269 269.498Z" fill="white"/>
<path d="M77.555 270.803C75.6342 269.933 73.3509 269.498 70.7053 269.498H57.0781V297.839H66.6461V290.881H70.7415C73.3872 290.881 75.6704 290.446 77.5913 289.576C79.5121 288.706 80.998 287.474 82.0491 285.879C83.1001 284.285 83.6437 282.4 83.6437 280.225C83.6437 278.051 83.1001 276.13 82.0491 274.535C80.9618 272.905 79.4759 271.672 77.555 270.803ZM73.0248 282.617C72.3724 283.197 71.4301 283.524 70.0891 283.524H66.6099V276.891H70.0891C71.3938 276.891 72.3724 277.181 73.0248 277.797C73.6409 278.377 73.967 279.211 73.967 280.225C73.967 281.204 73.6409 282.001 73.0248 282.617Z" fill="white"/>
<path d="M111.7 285.843C112.751 284.248 113.295 282.4 113.295 280.189C113.295 277.978 112.751 276.094 111.7 274.499C110.649 272.905 109.163 271.672 107.242 270.803C105.322 269.933 103.038 269.498 100.393 269.498H86.7656V297.839H96.3336V290.7H98.943L103.763 297.839H113.947L108.004 289.141C109.526 288.308 110.794 287.22 111.7 285.843ZM102.676 277.761C103.292 278.341 103.618 279.174 103.618 280.189C103.618 281.204 103.292 282.038 102.676 282.617C102.024 283.197 101.081 283.524 99.7404 283.524H96.2611V276.891H99.7404C101.081 276.855 102.06 277.145 102.676 277.761Z" fill="white"/>
<path d="M126.27 286.894H138.23V280.008H126.27V276.71H139.897V269.498H116.883V297.839H140.44V290.627H126.27V286.894Z" fill="white"/>
<path d="M164.756 282.762C163.814 282.146 162.799 281.639 161.712 281.276C160.589 280.914 159.501 280.588 158.378 280.37C157.254 280.153 156.24 279.935 155.297 279.754C154.355 279.573 153.63 279.319 153.05 279.029C152.47 278.739 152.217 278.377 152.217 277.87C152.217 277.543 152.325 277.254 152.543 276.964C152.76 276.71 153.159 276.492 153.703 276.311C154.246 276.166 154.971 276.058 155.877 276.058C157.109 276.058 158.378 276.239 159.719 276.601C161.024 276.964 162.401 277.471 163.778 278.196L166.641 271.274C165.155 270.44 163.488 269.824 161.64 269.425C159.791 269.027 157.907 268.809 155.986 268.809C153.086 268.809 150.622 269.244 148.665 270.114C146.708 270.984 145.222 272.143 144.243 273.557C143.265 275.007 142.757 276.601 142.757 278.341C142.757 279.863 143.047 281.095 143.591 282.11C144.171 283.125 144.896 283.922 145.838 284.574C146.78 285.191 147.795 285.698 148.919 286.06C150.042 286.423 151.166 286.749 152.253 286.966C153.376 287.184 154.391 287.401 155.297 287.619C156.24 287.836 156.964 288.054 157.544 288.38C158.124 288.67 158.378 289.069 158.378 289.576C158.378 289.902 158.269 290.192 158.015 290.409C157.762 290.627 157.399 290.808 156.856 290.953C156.312 291.098 155.623 291.134 154.681 291.134C153.123 291.134 151.492 290.881 149.861 290.409C148.194 289.938 146.708 289.322 145.331 288.525L142.25 295.483C143.663 296.353 145.512 297.042 147.723 297.585C149.933 298.129 152.217 298.383 154.609 298.383C157.544 298.383 160.009 297.948 161.93 297.078C163.887 296.208 165.336 295.048 166.315 293.599C167.293 292.149 167.801 290.554 167.801 288.851C167.801 287.365 167.511 286.133 166.967 285.118C166.46 284.212 165.699 283.378 164.756 282.762Z" fill="white"/>
<path d="M193.605 285.191C193.025 284.176 192.3 283.378 191.358 282.762C190.416 282.146 189.401 281.639 188.314 281.276C187.19 280.914 186.103 280.588 184.979 280.37C183.856 280.153 182.841 279.935 181.899 279.754C180.957 279.573 180.232 279.319 179.652 279.029C179.072 278.739 178.818 278.377 178.818 277.87C178.818 277.543 178.927 277.254 179.144 276.964C179.362 276.71 179.761 276.492 180.304 276.311C180.848 276.166 181.573 276.058 182.479 276.058C183.711 276.058 184.979 276.239 186.32 276.601C187.625 276.964 189.002 277.471 190.379 278.196L193.243 271.274C191.757 270.44 190.09 269.824 188.241 269.425C186.393 269.027 184.508 268.809 182.587 268.809C179.688 268.809 177.224 269.244 175.266 270.114C173.309 270.984 171.823 272.143 170.845 273.557C169.866 275.007 169.359 276.601 169.359 278.341C169.359 279.863 169.649 281.095 170.193 282.11C170.772 283.125 171.497 283.922 172.44 284.574C173.382 285.191 174.397 285.698 175.52 286.06C176.644 286.423 177.767 286.749 178.854 286.966C179.978 287.184 180.993 287.401 181.899 287.619C182.841 287.836 183.566 288.054 184.146 288.38C184.726 288.67 184.979 289.069 184.979 289.576C184.979 289.902 184.871 290.192 184.617 290.409C184.363 290.627 184.001 290.808 183.457 290.953C182.914 291.098 182.225 291.134 181.283 291.134C179.724 291.134 178.093 290.881 176.462 290.409C174.795 289.938 173.309 289.322 171.932 288.525L168.852 295.483C170.265 296.353 172.113 297.042 174.324 297.585C176.535 298.129 178.818 298.383 181.21 298.383C184.146 298.383 186.61 297.948 188.531 297.078C190.488 296.208 191.938 295.048 192.916 293.599C193.895 292.149 194.402 290.554 194.402 288.851C194.475 287.438 194.185 286.205 193.605 285.191Z" fill="white"/>
<path d="M142.76 147.615L144.717 147.796C139.752 136.271 129.713 137.938 129.713 137.938C129.713 137.938 129.061 135.981 129.097 135.184C129.133 134.386 129.423 134.278 129.641 133.698C129.822 133.118 127.212 131.596 127.212 131.596L126.56 128.733C130.075 129.53 130.873 125.58 130.873 125.58C133.12 117.932 127.502 117.643 127.502 117.643L128.082 116.41C129.097 114.163 126.379 113.62 126.379 113.62C127.212 112.387 126.125 110.612 123.588 109.742C121.051 108.872 120.181 112.605 120.181 112.605C117.391 109.597 112.86 107.64 112.86 107.64C113.549 105.248 110.976 105.465 110.976 105.465C110.36 104.668 108.113 104.668 108.113 104.668C106.663 103.834 105.141 105.175 105.141 105.175C103.401 102.566 100.103 100.862 100.103 100.862C103.51 99.8838 102.712 93.4327 102.712 93.4327C102.712 93.4327 104.742 93.2877 106.337 91.4393C107.931 89.5547 102.966 88.9386 102.966 88.9386C102.966 88.9386 101.698 85.1332 96.2251 84.9519C90.7525 84.7707 89.7015 89.9172 89.7015 89.9172V94.4837L91.4411 96.8032L88.5055 96.2958C84.3014 96.1146 83.3954 100.391 83.3954 100.391L80.5684 110.213L69.732 107.93L51.8283 111.771L50.9948 134.278L67.7025 132.212L69.2246 133.952L66.5065 135.003L67.3762 133.19L52.8069 134.713L54.9089 135.51V136.561C54.2566 136.815 53.8216 137.54 53.9666 138.301C54.0753 138.88 54.5465 139.352 55.1264 139.46C56.1049 139.678 56.9747 138.917 56.9747 137.974C56.9747 137.358 56.6123 136.815 56.0687 136.597V135.51L61.9762 137.141C59.6204 138.373 57.4096 140.946 57.4096 140.946C57.4096 140.946 55.4888 140.946 54.9089 140.729C54.3291 140.511 53.6767 140.076 53.1693 139.859C52.6619 139.605 50.2699 140.801 50.1974 143.592C50.0887 146.383 54.0029 145.513 54.0029 145.513L50.8135 150.587H55.3076L55.9599 151.384C55.8875 151.312 55.2351 151.384 55.1264 151.384C54.4015 151.384 53.6404 151.312 52.9518 151.565C51.8646 151.964 52.1545 153.631 53.2418 153.776C53.278 153.776 60.8527 154.682 60.8527 154.682L53.0606 154.392C52.7344 154.392 52.4082 154.537 52.227 154.827L50.2337 157.98C49.2189 159.575 50.3424 161.641 52.227 161.641H57.1559C56.7935 161.641 58.1345 166.388 58.3519 166.787C59.113 168.418 60.2003 169.904 61.6137 171.027C64.4406 173.274 68.3548 173.637 71.7616 172.658C76.1831 171.354 79.4812 167.403 80.9671 163.127C81.0033 163.018 81.0396 162.909 81.0759 162.764L82.1994 162.8L82.598 164.033L105.104 165.12L106.373 163.851H108.475L109.635 162.837L113.042 162.619C113.042 162.619 112.824 162.728 113.73 163.598C114.636 164.468 116.231 163.127 116.231 163.127C116.05 163.272 116.774 165.156 116.883 165.374C117.173 166.207 117.499 167.005 117.934 167.766C118.695 169.179 119.746 170.52 121.051 171.499C127.249 176.065 135.258 172.731 139.68 167.403C141.637 165.047 142.978 162.184 143.558 159.176C144.282 155.479 144.065 151.457 142.905 147.869C142.796 147.796 142.76 147.687 142.76 147.615ZM114.382 121.81C114.382 121.81 113.295 121.738 113.005 122.571C112.897 122.934 113.005 123.296 113.223 123.586L113.875 124.384C113.73 124.311 110.215 121.992 104.488 125.326C102.966 124.782 94.4855 121.412 94.4855 121.412V118.512C94.4855 118.512 97.5298 114.779 98.3634 112.677C99.197 110.575 102.096 112.17 103.546 113.076C104.996 113.982 115.18 118.512 115.18 118.512C115.18 118.512 113.404 119.672 114.382 121.81Z" fill="black"/>
<path d="M117.862 155.951C117.862 155.951 116.63 167.331 125.111 170.013C125.111 170.013 130.293 171.1 134.28 167.548C134.28 167.548 128.517 174.289 121.16 169.578C121.16 169.542 114.745 165.555 117.862 155.951Z" fill="white"/>
<path d="M140.225 147.361H141.276C141.276 147.361 146.386 156.168 139.5 164.975C139.464 164.975 144.937 155.298 140.225 147.361Z" fill="white"/>
<path d="M130.368 155.008C130.405 155.153 130.513 155.334 130.658 155.334C130.839 155.334 130.912 155.117 130.912 154.936C130.912 154.501 130.731 154.066 130.441 153.704C130.151 153.341 129.788 153.087 129.426 152.834C129.317 152.761 129.245 152.725 129.136 152.689C129.027 152.689 128.919 152.725 128.846 152.797C128.737 152.979 129.535 153.595 129.68 153.74C129.933 154.138 130.187 154.573 130.368 155.008Z" fill="white"/>
<path d="M126.414 156.096C126.634 156.096 126.813 155.917 126.813 155.697C126.813 155.477 126.634 155.298 126.414 155.298C126.194 155.298 126.016 155.477 126.016 155.697C126.016 155.917 126.194 156.096 126.414 156.096Z" fill="white"/>
<path d="M126.82 154.03C126.82 154.03 128.161 155.407 127.436 157.11C127.436 157.11 126.712 158.596 125.516 157.618C125.878 157.908 126.168 158.27 126.639 158.451C127.436 158.777 128.596 158.596 129.14 157.871C129.212 157.763 129.285 157.654 129.321 157.545C129.575 156.965 129.683 156.313 129.502 155.697C129.43 155.443 129.321 155.189 129.176 154.972C129.104 154.863 128.487 154.356 128.487 154.283C128.56 154.32 127.98 153.812 126.82 154.03Z" fill="white"/>
<path d="M132.83 147.216L130.329 150.369C130.329 150.369 136.164 152.761 134.243 159.031C132.322 165.301 126.741 163.09 126.741 163.09C126.741 163.09 122.029 161.532 123.769 153.812L123.008 152.58C123.008 152.58 119.927 158.669 123.515 163.997C123.515 163.997 126.125 168.418 131.235 166.968C131.235 166.968 135.077 165.337 137.034 160.626C137.034 160.626 135.548 168.056 128.263 167.766C128.263 167.766 121.848 167.403 120.072 159.901C119.529 157.545 119.674 155.117 120.399 152.798C120.833 151.384 121.45 149.79 122.102 149.028C122.102 149.028 118.586 152.037 118.876 157.98C119.13 163.272 121.196 166.968 125.98 168.636C127.575 169.179 129.314 169.179 130.873 168.563C132.648 167.838 134.932 166.316 136.78 163.054C140.368 156.712 138.846 150.841 137.904 149.318C136.961 147.796 133.663 142.324 125.255 145.839L125.291 146.673C125.291 146.673 130.401 143.338 134.751 147.216C139.1 151.058 138.157 155.371 138.157 155.371C138.157 155.371 137.106 148.702 132.83 147.216Z" fill="white"/>
<path d="M129.82 146.636V148.63L131.777 146.854C131.777 146.854 130.581 146.419 129.82 146.636Z" fill="white"/>
<path d="M125.547 147.47L126.67 151.348L128.555 150.623V146.673C128.555 146.709 127.866 146.346 125.547 147.47Z" fill="white"/>
<path d="M126.242 134.531L127.474 138.591L129.069 138.047L127.474 134.531H126.242Z" fill="white"/>
<path d="M122.32 134.785L123.806 140.403L126.234 139.207L124.35 134.785H122.32Z" fill="white"/>
<path d="M124.281 142.758C124.281 142.758 131.856 138.808 137.582 145.803H142.294C142.294 145.803 139.43 139.098 131.602 139.207C131.602 139.207 126.746 139.243 124.281 141.272V142.758Z" fill="white"/>
<path d="M122.102 145.622L123.551 145.114L126.414 154.682L124.784 155.335L122.102 145.622Z" fill="white"/>
<path d="M122.111 144.317L118.414 132.647L119.828 132.357L123.307 143.52C123.307 143.52 124.358 143.701 124.539 144.752C124.539 144.788 123.089 143.773 122.111 144.317Z" fill="white"/>
<path d="M118.767 145.223L119.275 147.796C119.275 147.796 114.201 154.102 113.911 159.357C113.875 159.357 112.534 151.312 118.767 145.223Z" fill="white"/>
<path d="M119.784 147.325C119.929 147.361 120.038 147.253 120.11 147.108C120.255 146.854 120.4 146.6 120.473 146.31C120.545 146.129 120.582 145.912 120.473 145.767C120.364 145.622 120.147 145.585 120.002 145.622C119.784 145.658 119.784 145.767 119.748 145.984C119.676 146.165 119.531 147.253 119.784 147.325Z" fill="white"/>
<path d="M119.5 144.752C119.935 144.86 120.406 144.897 120.841 144.861C120.986 144.861 121.167 144.824 121.276 144.716C121.385 144.607 121.385 144.426 121.385 144.281C121.385 144.136 121.385 143.954 121.348 143.809C121.203 143.23 120.768 143.592 120.442 143.809C120.08 144.027 119.754 144.353 119.5 144.752Z" fill="white"/>
<path d="M117.797 143.701C117.797 143.882 117.87 144.063 118.015 144.136C118.16 144.208 118.377 144.099 118.486 143.991C118.812 143.773 119.102 143.519 119.428 143.266C119.827 142.94 120.226 142.577 120.371 142.07C120.516 141.599 120.371 141.055 120.226 140.584C120.044 140.076 119.863 139.569 119.682 139.062C119.573 138.808 119.573 138.554 119.319 138.808C119.138 138.953 119.03 139.17 118.885 139.352C118.341 140.149 117.979 141.055 117.834 142.034C117.761 142.613 117.725 143.157 117.797 143.701Z" fill="white"/>
<path d="M117.425 144.752C117.461 144.788 117.498 144.824 117.534 144.824C117.57 144.824 117.643 144.824 117.643 144.788C117.679 144.752 117.643 144.715 117.643 144.643C117.534 144.317 117.28 143.991 116.954 143.846C116.918 143.809 116.809 143.773 116.773 143.846C116.737 143.882 116.773 143.918 116.809 143.918C116.845 144.027 116.882 144.136 116.954 144.208C117.135 144.462 117.28 144.607 117.425 144.752Z" fill="white"/>
<path d="M115.287 144.716C114.743 146.129 114.163 147.579 114.055 149.065C114.055 149.246 114.055 149.463 114.236 149.5C114.381 149.536 114.526 149.391 114.598 149.246C115.106 148.376 115.613 147.506 116.157 146.636C116.374 146.238 116.628 145.839 116.7 145.404C116.773 145.078 116.7 144.716 116.628 144.389C116.555 144.136 116.447 143.628 116.229 143.483C115.722 143.085 115.396 144.426 115.287 144.716Z" fill="white"/>
<path d="M111.772 155.914C111.953 155.951 112.135 155.951 112.28 155.878C112.497 155.769 112.57 155.552 112.642 155.334C113.258 153.704 113.621 152 113.766 150.26C113.367 151.094 112.859 151.891 112.352 152.653C111.845 153.45 111.301 154.247 110.54 154.827C110.286 155.008 109.525 155.371 110.141 155.552C110.649 155.769 111.229 155.842 111.772 155.914Z" fill="white"/>
<path d="M109.018 156.82C108.909 156.82 108.801 156.82 108.728 156.857C108.619 156.893 108.547 156.965 108.547 157.074C108.547 157.219 108.728 157.291 108.873 157.328C109.997 157.654 111.156 157.871 112.316 157.98C112.461 157.98 112.606 157.98 112.678 157.908C112.86 157.726 112.642 157.473 112.461 157.4C112.28 157.328 112.062 157.291 111.881 157.255C111.265 157.11 110.685 157.002 110.033 156.893C109.743 156.857 109.38 156.82 109.018 156.82Z" fill="white"/>
<path d="M116.559 140.258C116.523 140.403 116.487 140.548 116.523 140.693C116.523 140.838 116.632 140.983 116.74 141.055C116.885 141.128 117.066 141.055 117.175 140.946C117.284 140.838 117.356 140.693 117.429 140.584C118.081 139.352 118.77 138.119 119.06 136.742C119.096 136.597 119.132 136.452 119.096 136.307C119.06 136.162 119.024 136.017 118.879 135.945C118.335 135.619 117.9 136.778 117.719 137.105C117.393 137.757 117.103 138.409 116.885 139.098C116.776 139.497 116.632 139.859 116.559 140.258Z" fill="white"/>
<path d="M117.606 131.922C117.788 131.668 118.041 131.487 118.331 131.342C118.911 131.088 119.527 131.016 120.143 131.088C120.76 131.161 121.376 131.342 121.956 131.523C123.731 132.067 125.471 132.574 127.247 133.118C127.646 133.227 128.081 133.408 128.298 133.77C128.37 133.952 128.37 134.205 128.189 134.241C128.117 134.241 128.044 134.241 127.972 134.205C125.87 133.517 123.768 132.828 121.666 132.139C121.013 131.922 120.397 131.705 119.709 131.705C119.056 131.668 118.331 131.849 117.86 132.357C117.788 132.429 117.534 132.828 117.389 132.611C117.28 132.466 117.498 132.031 117.606 131.922Z" fill="white"/>
<path d="M119.82 121.158C121.632 121.992 123.191 123.369 124.242 125.108C124.242 124.166 124.206 123.151 124.387 122.209C124.604 121.303 125.003 120.397 125.728 119.781C126.453 119.165 127.504 118.947 128.373 119.31C129.062 119.6 129.533 120.252 129.787 120.977C130.004 121.702 130.041 122.463 129.968 123.188C129.823 124.71 129.352 126.196 128.591 127.5C128.953 127.464 129.243 127.174 129.461 126.884C130.258 125.725 130.512 124.275 130.512 122.861C130.512 122.064 130.439 121.194 130.077 120.469C129.497 119.382 128.301 118.73 127.105 118.585C125.909 118.44 124.677 118.766 123.517 119.237C122.14 119.817 121.053 120.397 119.82 121.158Z" fill="white"/>
<path d="M127.181 127.537C128.222 127.537 129.066 125.849 129.066 123.767C129.066 121.686 128.222 119.998 127.181 119.998C126.141 119.998 125.297 121.686 125.297 123.767C125.297 125.849 126.141 127.537 127.181 127.537Z" fill="white"/>
<path d="M124.355 130.654C124.355 130.835 124.355 131.052 124.464 131.197C124.645 131.487 125.08 131.487 125.406 131.632C125.624 131.705 125.877 131.85 126.058 131.741C126.203 131.632 126.203 131.451 126.203 131.27C126.203 130.146 125.624 129.023 124.718 128.37C124.21 128.008 124.355 128.805 124.355 129.095C124.391 129.603 124.391 130.11 124.355 130.654Z" fill="white"/>
<path d="M117.93 129.965C117.64 130.182 117.386 130.436 117.277 130.799C117.241 130.907 117.241 131.052 117.277 131.161C117.313 131.27 117.422 131.378 117.531 131.378C117.676 131.378 117.821 131.27 117.93 131.161C118.473 130.69 119.271 130.509 119.959 130.726C120.068 130.762 120.177 130.799 120.249 130.762C120.394 130.726 120.43 130.545 120.43 130.4C120.394 130.037 120.104 129.784 119.778 129.639C119.162 129.385 118.509 129.566 117.93 129.965Z" fill="white"/>
<path d="M116.339 122.68L115.18 123.405L117.354 129.566L118.695 128.95L116.339 122.68Z" fill="white"/>
<path d="M116.453 121.665C116.924 121.593 117.395 121.702 117.794 121.955C117.866 122.028 117.975 122.064 118.011 122.173C118.048 122.281 118.048 122.39 117.975 122.463C117.649 122.318 117.323 122.173 116.96 122.1C116.598 122.028 116.235 122.064 115.909 122.209C115.801 122.282 114.895 122.825 115.257 122.354C115.547 121.992 115.982 121.738 116.453 121.665Z" fill="white"/>
<path d="M114.999 121.376C115.072 121.158 115.289 121.013 115.507 120.941C115.724 120.868 115.978 120.904 116.195 120.941C116.667 121.013 117.138 121.194 117.573 121.448C117.5 121.412 117.428 121.049 117.391 120.977C117.319 120.832 117.21 120.651 117.138 120.542C116.956 120.252 116.703 119.998 116.413 119.745C116.195 119.563 115.869 119.273 115.579 119.31C115.289 119.382 115.108 119.853 115.036 120.107C114.891 120.506 114.891 120.941 114.999 121.376Z" fill="white"/>
<path d="M118.403 120.469C118.475 120.542 118.584 120.614 118.693 120.614C118.838 120.651 118.983 120.578 119.092 120.506C119.49 120.288 119.853 119.998 120.179 119.708L120.215 119.672C120.215 119.636 120.215 119.6 120.179 119.6C120.143 119.6 120.106 119.6 120.07 119.6C119.418 119.6 118.765 119.418 118.149 119.201C117.823 119.092 117.533 118.947 117.207 118.838C117.062 118.766 116.881 118.73 116.736 118.657C116.663 118.621 116.373 118.512 116.301 118.549C116.156 118.657 117.388 119.636 117.497 119.745C117.787 119.998 118.113 120.216 118.403 120.469Z" fill="white"/>
<path d="M124.824 117.932C124.86 117.969 124.896 118.005 124.969 118.005C125.005 118.005 125.077 117.969 125.077 117.932C125.077 117.896 125.077 117.86 125.041 117.86C124.896 117.606 124.715 117.389 124.497 117.208C124.425 117.135 124.207 116.954 124.063 117.026C123.954 117.099 124.099 117.208 124.171 117.28C124.353 117.497 124.57 117.751 124.824 117.932Z" fill="white"/>
<path d="M125.072 116.084C124.891 116.302 124.71 116.555 124.782 116.809C124.854 116.99 125.036 117.099 125.181 117.208C125.398 117.353 125.616 117.461 125.797 117.606C125.869 117.643 125.906 117.679 125.978 117.679C126.05 117.679 126.123 117.606 126.195 117.534C126.449 117.244 126.667 116.954 126.92 116.664C127.029 116.519 127.174 116.374 127.174 116.193C127.21 115.939 127.065 115.649 126.884 115.504C126.594 115.287 126.304 115.142 125.978 115.359C125.652 115.54 125.326 115.794 125.072 116.084Z" fill="white"/>
<path d="M123.184 115.033C123.075 115.142 122.894 115.214 122.749 115.142C122.64 115.106 122.531 115.033 122.423 115.069C122.314 115.106 122.278 115.287 122.35 115.396C122.459 115.686 122.785 115.83 123.075 115.83C123.51 115.867 124.416 115.468 124.344 114.888C124.307 114.634 124.09 114.598 123.872 114.562C123.474 114.598 123.401 114.779 123.184 115.033Z" fill="white"/>
<path d="M121.453 114.199C121.562 114.344 121.671 114.489 121.816 114.489C121.961 114.489 122.07 114.344 122.07 114.163C122.07 114.018 121.961 113.873 121.852 113.801C121.453 113.475 121.164 113.728 121.453 114.199Z" fill="white"/>
<path d="M121.776 111.554C121.558 111.844 121.45 112.206 121.558 112.532C121.667 112.859 121.993 113.148 122.319 113.112C122.537 113.076 122.754 112.931 122.899 112.75C123.153 112.46 123.298 112.061 123.262 111.663C123.225 111.409 122.972 110.865 122.646 110.865C122.392 110.865 121.957 111.336 121.776 111.554Z" fill="white"/>
<path d="M115.578 111.808C115.977 112.496 116.303 113.185 116.774 113.801C117.463 114.743 118.332 115.504 119.238 116.265C120.145 117.026 121.014 117.787 121.92 118.549C121.63 117.026 120.688 115.722 119.782 114.453C119.13 113.547 118.477 112.641 117.68 111.88C117.028 111.264 116.303 110.72 115.578 110.249C115.216 110.032 114.817 109.778 114.454 109.561C114.165 109.379 113.73 109.017 113.367 109.017C114.237 109.85 114.998 110.756 115.578 111.808Z" fill="white"/>
<path d="M110.109 109.343C110.326 109.669 110.616 109.887 110.906 110.14C112.356 111.3 113.697 112.569 114.965 113.946C115.436 114.453 115.944 115.033 116.089 115.722C115.726 115.685 115.436 115.432 115.219 115.214C114.385 114.381 113.733 113.402 113.008 112.46C112.283 111.518 111.45 110.648 110.362 110.14C109.927 109.923 109.42 109.778 109.203 109.343C109.094 109.089 109.094 108.799 109.239 108.546C109.347 108.365 109.529 108.22 109.71 108.147C109.855 108.111 110.072 108.038 110.072 108.22C110.072 108.365 109.927 108.51 109.927 108.691C109.891 108.908 109.964 109.162 110.109 109.343Z" fill="white"/>
<path d="M113.691 111.409C113.872 111.59 114.126 111.808 114.379 111.771C114.416 111.626 114.379 111.445 114.307 111.3C114.234 111.155 114.126 111.046 113.981 110.938C113.691 110.648 113.328 110.43 112.966 110.285C112.893 110.249 112.712 110.177 112.676 110.322C112.64 110.43 112.857 110.575 112.93 110.648C113.183 110.938 113.437 111.191 113.691 111.409Z" fill="white"/>
<path d="M111.925 108.401C111.997 108.473 112.07 108.509 112.179 108.509C112.251 108.509 112.36 108.51 112.396 108.437C112.432 108.365 112.396 108.256 112.324 108.183C112.142 108.038 111.671 108.111 111.925 108.401Z" fill="white"/>
<path d="M111.988 109.089C111.952 109.162 111.952 109.234 111.988 109.343C112.024 109.452 112.024 109.524 112.097 109.597C112.169 109.669 112.278 109.705 112.351 109.669C112.459 109.669 112.532 109.597 112.604 109.524C112.64 109.452 112.677 109.379 112.677 109.307C112.677 109.198 112.604 109.126 112.496 109.053C112.387 108.981 112.097 108.908 111.988 109.089Z" fill="white"/>
<path d="M111.269 112.061C111.486 111.953 111.341 111.481 111.051 111.59C110.798 111.699 111.051 112.206 111.269 112.061Z" fill="white"/>
<path d="M106.85 108.872C106.778 108.872 106.669 108.872 106.633 108.981C106.633 109.017 106.633 109.089 106.669 109.126C106.705 109.162 106.778 109.198 106.814 109.198C107.068 109.27 107.285 109.379 107.539 109.452C107.648 109.488 107.756 109.524 107.865 109.524C108.191 109.452 108.046 109.126 107.829 109.053C107.539 108.944 107.176 108.908 106.85 108.872Z" fill="white"/>
<path d="M107.526 106.77C107.345 107.06 107.236 107.386 107.273 107.748C107.273 107.93 107.381 108.147 107.563 108.147C107.707 108.147 107.852 108.002 107.889 107.821C107.925 107.64 107.889 107.495 107.925 107.35C107.961 107.169 108.07 107.024 108.179 106.879C108.287 106.734 108.396 106.552 108.396 106.371C108.396 106.262 108.36 106.154 108.287 106.081C108.179 105.973 108.142 106.009 108.034 106.118C107.889 106.299 107.671 106.516 107.526 106.77Z" fill="white"/>
<path d="M105.789 106.009C105.572 106.226 105.427 106.552 105.391 106.842C105.391 107.06 105.463 107.35 105.681 107.459C105.934 107.604 106.224 107.459 106.442 107.277C106.695 107.06 106.913 106.734 107.058 106.408C107.13 106.19 107.167 105.936 107.094 105.719C107.022 105.501 106.732 105.32 106.514 105.429C106.26 105.574 106.007 105.791 105.789 106.009Z" fill="white"/>
<path d="M109.166 111.3C108.224 111.119 97.5322 110.358 94.6328 110.467C96.7349 110.358 106.303 109.923 109.963 110.865C109.927 110.865 110.145 111.481 109.166 111.3Z" fill="white"/>
<path d="M58.1016 161.641L60.6023 161.786C60.6023 161.786 60.566 169.324 67.4521 169.469C67.4521 169.469 71.5475 170.085 76.9113 163.525C76.9113 163.525 75.3529 168.817 68.1407 170.556C66.2923 170.991 64.3353 170.81 62.6681 169.868C60.6748 168.78 58.609 166.461 58.1016 161.641Z" fill="white"/>
<path d="M61.6562 161.931H62.9247C62.9247 161.931 63.4321 166.823 68.1074 166.135C68.1074 166.135 64.6643 165.482 64.7006 162.221L71.043 162.764C71.043 162.764 68.7235 165.809 69.0134 167.222C69.0134 167.222 69.3759 167.838 70.2094 166.425C71.043 165.011 72.2027 162.837 72.2027 162.837L75.0659 163.163C75.0659 163.163 72.2752 168.744 66.7301 167.838C66.7301 167.766 62.2361 167.041 61.6562 161.931Z" fill="white"/>
<path d="M97.0909 86.3654C95.1701 86.3292 93.2855 87.1628 92.3069 88.7937C91.7633 89.6635 91.6545 90.6058 91.727 91.6206C91.727 91.9468 91.7633 93.5776 91.7633 93.8676C91.7633 94.23 92.1257 94.4112 92.3794 94.6287L93.7566 95.7884L94.4452 96.3683C94.5177 96.4408 94.5539 96.4408 94.6264 96.477C94.8076 96.5133 95.0251 96.3683 94.9889 96.1509V96.0421C94.9889 95.4623 95.0251 93.9401 95.0251 93.3602C94.9164 91.983 96.0761 90.8957 97.2359 90.3883C98.9393 89.6635 100.824 89.6272 102.6 89.7722C100.389 89.9172 96.2573 90.3159 95.7137 92.9253C95.7137 93.2152 95.7499 94.8461 95.7499 95.1361V96.0421C95.7499 96.2596 95.7137 96.477 95.6412 96.6583C95.315 97.3106 94.3728 97.4556 93.8654 96.9844L93.1767 96.4045C92.9231 96.1871 91.6908 95.1361 91.4734 94.9549C91.1472 94.7012 90.9297 94.3025 90.9297 93.9038V93.4327L90.966 91.6568C90.966 91.0407 90.966 90.3883 91.1472 89.8085C91.9808 87.3077 94.5902 85.9305 97.0909 86.3654Z" fill="white"/>
<path d="M98.2223 93.179C97.8599 93.0703 97.7874 92.5629 98.0773 92.3455C98.331 92.1643 98.8022 92.0555 99.6358 92.3455C101.593 92.9616 101.738 93.1066 101.702 93.3603C101.629 93.5777 99.8532 93.7227 98.2223 93.179Z" fill="white"/>
<path d="M96.6576 94.8462L101.079 96.5496C101.079 96.5496 101.115 100.246 99.1946 99.7026C97.31 99.0865 96.6214 96.5496 96.6576 94.8462Z" fill="white"/>
<path d="M95.1396 102.058C95.2846 102.24 95.4296 102.457 95.6833 102.421C95.6833 102.421 95.2121 101.225 95.1396 101.116C94.9221 100.681 94.6685 100.282 94.3785 99.9201C94.2698 99.7751 93.6174 98.869 93.4725 99.0865C93.4 99.1952 93.6899 99.6301 93.7624 99.7388C93.9074 99.9925 94.0161 100.21 94.161 100.464C94.451 101.007 94.7772 101.551 95.1396 102.058Z" fill="white"/>
<path d="M86.3362 99.4126C86.3362 99.4126 87.5684 98.3254 89.8154 98.6878C89.8154 98.6878 87.3147 96.4408 85.2851 98.8327C83.2556 101.225 86.01 105.103 86.01 105.103C86.01 105.103 88.0758 108.111 92.3162 107.966C96.5565 107.821 104.385 106.625 104.385 106.625C102.79 105.973 101.159 105.32 99.5646 104.704C98.5136 104.305 97.4263 103.907 96.3753 103.544C94.9618 103.073 93.4397 102.747 91.9538 102.856C90.7578 102.928 89.5617 103.436 88.4745 103.943C88.402 103.979 88.3657 103.979 88.2933 104.015C88.2933 104.015 89.4893 102.53 91.0839 102.276L86.9885 102.167C86.9885 102.167 88.4745 100.464 90.3228 100.681C90.3591 100.645 89.1993 99.3039 86.3362 99.4126Z" fill="white"/>
<path d="M83.6884 104.088C83.6884 104.088 85.7542 108.111 88.5811 109.126L82.6374 114.381L89.5234 110.648L81.0065 117.932C81.0065 117.932 88.9073 119.128 91.9517 120.651C91.9517 120.651 84.0146 118.983 79.5931 121.52C79.5931 121.52 78.2158 117.461 82.3837 113.148C82.3837 113.148 82.0575 108.256 83.6884 104.088Z" fill="white"/>
<path d="M97.2077 147.18C102.282 145.404 103.369 139.207 103.369 139.207L100.614 149.318C100.614 149.318 95.5768 149.934 93.8009 151.384C93.8009 151.384 93.4747 136.416 99.8896 130.4C99.8896 130.4 97.1715 131.052 95.3956 133.046C95.3956 133.046 80.7899 128.334 80.5 123.26C80.5 123.26 83.4356 121.883 85.284 121.666L84.5953 122.354C84.5953 122.354 87.2411 122.173 88.3283 122.463C88.3283 122.463 85.7913 123.369 85.284 124.601C85.284 124.601 91.8076 120.578 101.086 128.479C101.086 128.479 102.825 129.893 101.629 135.256C100.506 140.584 97.2077 147.18 97.2077 147.18Z" fill="white"/>
<path d="M108.293 136.488C109.597 136.525 110.938 136.452 112.171 136.017C113.946 135.401 115.36 134.024 116.339 132.393C115.396 134.713 113.185 136.525 110.721 136.996C109.67 137.213 108.583 137.177 107.532 137.141C107.024 137.141 106.517 137.105 106.009 137.068C105.538 137.032 104.922 136.996 104.451 136.815C104.052 136.633 104.524 136.488 104.777 136.452C105.321 136.38 105.864 136.416 106.408 136.452C107.024 136.416 107.677 136.452 108.293 136.488Z" fill="white"/>
<path d="M104.027 133.698C104.752 132.61 104.969 131.197 104.57 129.965C104.172 128.733 103.193 127.682 101.961 127.21C103.882 126.232 105.839 125.579 107.941 125.108C108.593 124.963 109.246 124.818 109.898 124.891C110.55 124.963 111.239 125.217 111.638 125.724C111.964 126.123 112.109 126.667 112.218 127.21C112.326 127.899 112.399 128.588 112.218 129.24C112 130.037 111.456 130.762 110.804 131.27C110.152 131.813 109.391 132.176 108.593 132.465C107.144 133.045 105.658 133.48 104.027 133.698Z" fill="white"/>
<path d="M113.403 142.903C113.621 143.121 113.657 143.447 113.621 143.773C113.585 144.063 113.512 144.389 113.548 144.679C113.548 144.716 113.585 144.788 113.621 144.788C113.657 144.788 113.693 144.752 113.693 144.715C113.838 144.498 114.019 144.244 114.164 144.027C114.309 143.809 114.454 143.592 114.527 143.338C114.599 143.121 114.636 142.867 114.527 142.686C114.346 142.396 113.911 142.323 113.621 142.323C113.476 142.323 113.258 142.324 113.186 142.468C113.077 142.65 113.295 142.795 113.403 142.903Z" fill="white"/>
<path d="M114.275 140.983C114.595 140.983 114.855 140.723 114.855 140.403C114.855 140.082 114.595 139.823 114.275 139.823C113.955 139.823 113.695 140.082 113.695 140.403C113.695 140.723 113.955 140.983 114.275 140.983Z" fill="white"/>
<path d="M110.465 145.585C110.393 145.73 110.32 145.875 110.356 146.056C110.393 146.201 110.538 146.383 110.683 146.31C110.755 146.274 110.827 146.201 110.864 146.129C111.516 144.969 111.879 143.592 111.661 142.287C111.48 141.2 110.646 139.497 109.414 139.279C109.45 139.46 109.74 139.714 109.849 139.895C110.03 140.113 110.175 140.366 110.284 140.62C110.538 141.127 110.719 141.707 110.828 142.251C111.045 143.338 110.936 144.534 110.465 145.585Z" fill="white"/>
<path d="M106.842 147.796C107.022 147.796 107.168 147.65 107.168 147.47C107.168 147.29 107.022 147.144 106.842 147.144C106.662 147.144 106.516 147.29 106.516 147.47C106.516 147.65 106.662 147.796 106.842 147.796Z" fill="white"/>
<path d="M106.01 146.274C106.27 146.274 106.481 146.063 106.481 145.803C106.481 145.543 106.27 145.332 106.01 145.332C105.75 145.332 105.539 145.543 105.539 145.803C105.539 146.063 105.75 146.274 106.01 146.274Z" fill="white"/>
<path d="M104.597 144.861C104.797 144.861 104.959 144.698 104.959 144.498C104.959 144.298 104.797 144.136 104.597 144.136C104.397 144.136 104.234 144.298 104.234 144.498C104.234 144.698 104.397 144.861 104.597 144.861Z" fill="white"/>
<path d="M106.302 142.215C106.483 142.07 106.664 141.925 106.882 141.961C107.063 141.997 107.208 142.106 107.316 142.251C107.498 142.432 107.715 142.614 107.933 142.686C108.186 142.795 108.476 142.795 108.694 142.65C108.984 142.469 109.056 142.034 108.911 141.707C108.766 141.381 108.476 141.164 108.186 141.019C107.86 140.874 107.534 140.801 107.208 140.656C106.954 140.548 106.664 140.439 106.41 140.403C106.157 140.367 105.831 140.403 105.613 140.584C105.468 140.693 105.396 140.874 105.287 141.055C105.142 141.381 105.033 141.708 104.961 142.07C104.888 142.396 104.78 142.831 104.852 143.157C104.925 143.556 105.323 143.048 105.432 142.94C105.722 142.722 106.012 142.469 106.302 142.215Z" fill="white"/>
<path d="M106.122 143.737C106.122 144.027 106.304 144.317 106.485 144.571C107.717 146.419 107.826 148.847 107.101 150.949C106.376 153.051 104.818 154.791 103.006 156.059C101.193 157.328 99.0914 158.161 96.9531 158.778C97.3155 159.285 97.7505 159.865 98.4028 159.865C98.6565 159.865 98.9102 159.756 99.1277 159.684C101.556 158.669 103.767 157.183 105.615 155.335C107.282 153.631 108.696 151.565 109.131 149.21C109.384 147.832 109.239 146.383 108.696 145.114C108.406 144.462 108.043 143.846 107.572 143.338C107.318 143.085 107.137 142.867 106.811 142.94C106.449 142.976 106.122 143.411 106.122 143.737Z" fill="white"/>
<path d="M90.8629 159.647H89.7031V160.59H90.8629V159.647Z" fill="white"/>
<path d="M96.4771 160.118H91.7656V160.59H96.4771V160.118Z" fill="white"/>
<path d="M91.1562 159.068H95.8315L96.4839 159.72H91.6274L91.1562 159.068Z" fill="white"/>
<path d="M81.5784 129.566C82.5932 130.436 83.7891 131.088 84.9851 131.632C87.5946 132.792 90.349 133.553 93.1034 134.314C87.6671 133.009 82.2669 131.668 76.8306 130.364C76.6856 130.327 77.1931 128.914 77.2655 128.769C77.483 128.262 77.8092 127.754 78.2078 127.319C78.4253 127.102 79.1139 126.268 79.4763 126.449C79.6575 126.522 79.73 127.029 79.8387 127.21C79.9474 127.5 80.1287 127.754 80.2737 128.008C80.5998 128.588 81.071 129.095 81.5784 129.566Z" fill="white"/>
<path d="M93.3246 155.226C92.6722 155.407 91.9474 155.48 91.295 155.661C90.1352 155.987 89.0842 156.676 88.3594 157.654C89.8091 157.654 91.2587 157.654 92.7447 157.654C93.2521 157.654 93.7595 157.654 94.2306 157.437C94.593 157.292 94.883 157.038 95.1729 156.821C96.6226 155.806 98.5072 155.371 100.174 155.914C99.9931 155.842 99.7394 155.552 99.5582 155.443C99.3408 155.298 99.1233 155.117 98.9059 154.972C98.471 154.682 97.9998 154.392 97.4924 154.139C97.1663 153.957 96.5864 153.522 96.2239 153.631C96.0065 153.704 95.7528 153.921 95.5716 154.066C95.3542 154.211 95.1367 154.356 94.9192 154.501C94.4481 154.755 93.9044 155.045 93.3246 155.226Z" fill="white"/>
<path d="M104.772 150.442C104.881 151.167 104.664 151.928 104.229 152.507C103.794 153.087 103.214 153.559 102.598 153.921C101.982 154.283 101.293 154.573 100.641 154.899C102.416 154.718 104.047 153.595 104.845 152.036C105.171 151.42 105.388 150.695 105.243 150.007C105.098 149.318 104.591 148.666 103.902 148.521C103.721 148.485 103.323 148.557 103.468 148.847C103.54 148.956 103.939 149.101 104.084 149.209C104.446 149.499 104.7 149.971 104.772 150.442Z" fill="white"/>
<path d="M91.9924 153.414C91.8837 153.595 91.8112 153.849 91.9562 153.994C92.0649 154.102 92.2461 154.102 92.3911 153.994C92.536 153.885 92.6085 153.776 92.681 153.667C93.2609 152.87 94.0582 152.218 94.928 151.783C94.8555 151.819 94.5656 151.674 94.4569 151.674C94.3119 151.674 94.2394 151.674 94.0945 151.71C93.8045 151.819 93.5146 151.928 93.2609 152.109C92.7535 152.471 92.3186 152.906 91.9924 153.414Z" fill="white"/>
<path d="M83.7225 154.718L90.2823 154.972L83.4688 155.226L83.7225 154.718Z" fill="white"/>
<path d="M56.2907 155.842H53.1014L51.3617 158.56C51.3617 158.56 50.8543 159.575 52.5215 159.647C54.1524 159.72 85.7194 161.641 85.7194 161.641L52.5577 158.923L84.8858 159.72C84.8858 159.72 86.3355 160.988 86.9154 160.952C87.4952 160.88 89.0899 159.394 87.3865 158.778C85.6832 158.089 73.9044 156.531 56.2907 155.842Z" fill="white"/>
<path d="M53.2851 152.399C53.2851 152.399 75.5016 153.124 80.7568 155.008C80.7568 155.008 81.2642 155.878 79.4883 155.516C77.7125 155.19 54.4811 153.088 54.2637 153.088C54.0825 153.088 52.7415 153.051 53.2851 152.399Z" fill="white"/>
<path d="M51.25 142.795C51.25 142.795 51.5037 141.381 52.8809 140.946L54.9105 143.23L51.25 142.795Z" fill="white"/>
<path d="M68.4688 132.248L70.5346 133.661C70.5346 133.661 74.7024 134.423 76.4783 135.184C76.4783 135.184 72.7453 134.024 69.9909 134.169L68.4688 132.248Z" fill="white"/>
<path d="M76.0703 131.451L85.1309 132.864L78.0274 132.393C78.0274 132.393 78.3898 135.184 80.3832 135.438C82.3765 135.691 87.1604 136.271 87.1604 136.271L81.8328 139.026C81.8328 139.026 80.7456 137.105 79.912 136.815C79.0422 136.489 76.7589 135.945 76.0703 131.451Z" fill="white"/>
<path d="M79.6313 138.192L78.5078 139.207L79.4139 140.185L80.5374 139.134L79.6313 138.192Z" fill="white"/>
<path d="M75.2805 149.173C75.2805 149.173 79.3034 142.179 86.3706 140.004C86.3706 140.004 77.8537 141.055 74.5194 149.608C74.5194 149.608 74.2294 151.022 76.6214 151.13C79.0134 151.239 84.631 151.855 84.631 151.855L83.29 153.269L75.3167 153.087C75.0993 153.087 74.8818 152.906 74.8818 152.653C74.8818 152.399 75.063 152.181 75.3167 152.181L82.6014 152.326L75.208 151.529C75.208 151.529 73.1784 151.312 74.0845 148.702C74.9543 146.093 79.0497 139.062 86.8055 138.917C86.8055 138.917 88.9438 139.859 87.5666 142.469C86.1894 145.078 81.7316 148.122 81.7316 148.122C81.7316 148.122 85.8632 144.788 87.168 142.36C87.4216 141.925 86.9505 141.417 86.4793 141.599C84.7035 142.324 80.6443 144.317 75.2805 149.173Z" fill="white"/>
<path d="M70.0234 146.383C70.0234 146.383 76.4745 143.411 78.2142 141.272C78.2142 141.236 75.2786 145.549 70.0234 146.383Z" fill="white"/>
<path d="M67.3359 150.224C67.3359 150.224 68.8943 147.434 71.5763 148.739C72.2286 149.065 72.736 149.645 72.881 150.369C73.026 151.058 72.8448 151.964 71.7213 152.834C71.7213 152.834 71.7213 148.775 67.3359 150.224Z" fill="white"/>
<path d="M67.8829 145.078C66.7956 147.397 63.9688 151.529 63.9688 151.529C66.252 150.369 68.9702 145.875 69.2239 145.549C69.4776 145.223 69.9849 145.368 69.9849 145.368C69.1876 143.954 67.4118 143.954 67.4118 143.954C67.4118 143.954 68.1003 144.607 67.8829 145.078Z" fill="white"/>
<path d="M63.1322 147.796C63.7846 147.289 64.5095 146.926 65.1981 146.491C65.8867 146.057 66.5753 145.549 67.0102 144.861C66.5028 146.347 65.3068 147.506 64.0383 148.449C62.8061 149.391 61.4288 150.188 60.4141 151.348C61.2114 150.116 61.9362 148.775 63.1322 147.796Z" fill="white"/>
<path d="M59.8359 142.36C59.8359 142.36 67.628 135.691 73.608 142.94C73.608 142.94 68.6428 136.489 59.8359 142.36Z" fill="white"/>
<path d="M53.1016 148.738C53.1016 148.738 57.0882 139.931 64.5541 137.032C66.9823 136.09 69.7005 136.054 72.165 136.923C74.7019 137.793 77.3476 139.497 74.9919 142.541C74.9919 142.541 72.3462 137.467 65.4964 138.591C58.6466 139.714 53.1016 148.738 53.1016 148.738Z" fill="white"/>
<path d="M68.862 109.27L67.9922 130.798H68.862L69.6955 109.125L68.862 109.27Z" fill="white"/>
<path d="M67.8882 111.046L67.1271 130.871L52.1953 133.009L52.7389 114.091L53.8624 115.214L58.139 114.272V114.707C58.139 115.722 58.9726 116.555 59.9874 116.555C61.0022 116.555 61.8357 115.722 61.8357 114.707V113.438L66.7284 112.351L67.8882 111.046Z" fill="white"/>
<path d="M52.7422 112.895L54.0469 114.163L66.2968 111.409L67.7103 109.488L52.7422 112.895Z" fill="white"/>
<path d="M60.0254 115.722C60.5658 115.722 61.0039 115.284 61.0039 114.743C61.0039 114.203 60.5658 113.765 60.0254 113.765C59.4849 113.765 59.0469 114.203 59.0469 114.743C59.0469 115.284 59.4849 115.722 60.0254 115.722Z" fill="white"/>
<path d="M143.844 62.0831L126.121 55.9582L120.177 53.8924L107.964 49.6883L101.948 47.5862C98.1422 46.2815 94.0105 46.2815 90.2051 47.5862L84.1526 49.6883L80.9633 50.8118L65.9952 55.9944L48.2728 62.1194C39.3209 65.2 33.3047 73.6806 33.3047 83.1399V174.289C33.3047 179.544 35.153 184.473 38.3424 188.351C40.1545 190.598 42.4378 192.483 45.0472 193.896C46.062 194.44 47.1492 194.911 48.309 195.31L66.0315 201.435L71.9752 203.501L84.1888 207.705L90.2051 209.807C94.0105 211.111 98.1422 211.111 101.948 209.807L108 207.705L111.189 206.581L126.157 201.398L142.865 195.636L143.88 195.274C145.293 194.802 146.634 194.15 147.867 193.425C154.571 189.475 158.848 182.226 158.848 174.253V83.1037C158.848 73.6082 152.796 65.1637 143.844 62.0831ZM144.822 186.141C143.771 186.865 142.575 187.481 141.307 187.916L138.299 188.967L121.845 194.657L112.277 197.955L110.247 198.644L108.109 199.369L106.768 199.84L106.297 199.985L105.789 200.166L99.3381 202.377C98.2509 202.739 97.1274 202.921 96.0039 202.921C94.8803 202.921 93.7568 202.739 92.6696 202.377L77.484 197.122L70.1994 194.621L53.7453 188.931L50.7372 187.88C49.4687 187.445 48.2727 186.829 47.2217 186.104C45.6995 185.053 44.3948 183.676 43.38 182.154C42.8002 181.248 42.2928 180.269 41.9304 179.254C41.5317 178.167 41.2418 177.044 41.133 175.884C41.0968 175.703 41.0968 175.558 41.0968 175.377C41.0605 175.014 41.0605 174.615 41.0605 174.253V169.686V167.041C41.0968 167.077 41.133 167.113 41.1693 167.15C41.133 166.968 41.133 166.823 41.133 166.642C41.0968 166.28 41.0968 165.881 41.0968 165.519V91.8743C41.0968 91.3307 41.1331 90.7508 41.2055 90.2072C41.1693 90.2434 41.1693 90.2434 41.133 90.2796L41.0968 90.3159V83.1037C41.0968 82.56 41.1331 81.9802 41.2055 81.4366V81.4003C41.3505 80.2043 41.6404 79.0083 42.0753 77.8848C42.4377 76.9062 42.9452 75.9639 43.525 75.0579C44.5398 73.5357 45.8083 72.231 47.3304 71.18C48.3815 70.4551 49.5775 69.839 50.8459 69.4041L53.8541 68.3531L70.3081 62.663L79.876 59.365L81.9056 58.6763L84.0439 57.9515L85.3848 57.4804L85.856 57.3354L86.3634 57.1542L92.8145 54.9434C93.9018 54.581 95.0253 54.3998 96.1488 54.3998C97.2723 54.3998 98.3958 54.581 99.4831 54.9434L114.669 60.1986L121.953 62.6992L138.407 68.3893L141.415 69.4403C142.684 69.8752 143.88 70.4914 144.931 71.2162C146.453 72.2672 147.758 73.6444 148.773 75.1666C149.352 76.0726 149.86 77.0512 150.222 78.066C150.621 79.1533 150.911 80.2768 151.02 81.4366C151.056 81.6178 151.056 81.7627 151.056 81.9439C151.092 82.3064 151.092 82.705 151.092 83.0674V87.6339V90.2796C151.056 90.2434 151.02 90.2071 150.983 90.1709C151.02 90.3521 151.02 90.4971 151.02 90.6783C151.056 91.0407 151.056 91.4394 151.056 91.8018V165.446C151.056 165.99 151.02 166.57 150.947 167.113C150.983 167.077 150.983 167.077 151.02 167.041L151.056 167.005V174.217C151.056 174.76 151.02 175.34 150.947 175.884V175.92C150.802 177.116 150.512 178.312 150.077 179.436C149.715 180.414 149.208 181.357 148.628 182.263C147.613 183.785 146.344 185.089 144.822 186.141Z" fill="black"/>
</svg>
